<svg width="36" height="31" viewBox="0 0 36 31" fill="none" xmlns="http://www.w3.org/2000/svg">
<path d="M20.3457 27.4628H8.59992V29.5855H1.00337V20.6988C1.00337 20.6988 0.94949 19.7352 1.27276 18.9195C1.75766 17.603 3.05114 16.4868 3.85931 15.5709C4.29033 15.0223 5.63686 5.66337 9.8932 5.64429" stroke="#1B1A1A" stroke-width="2" stroke-miterlimit="1.5" stroke-linecap="round" stroke-linejoin="round"/>
<path d="M15.2236 27.4628H26.9694V29.5855H34.566V20.6988C34.566 20.6988 34.6198 19.7352 34.2966 18.9195C33.8117 17.603 32.5182 16.4868 31.71 15.5709C31.279 15.0223 29.9325 5.66337 25.6761 5.64429" stroke="#1B1A1A" stroke-width="2" stroke-miterlimit="1.5" stroke-linecap="round" stroke-linejoin="round"/>
<path d="M6.79163 23.6679C7.94816 23.6679 8.88574 22.7511 8.88574 21.6201C8.88574 20.4891 7.94816 19.5723 6.79163 19.5723C5.63509 19.5723 4.69751 20.4891 4.69751 21.6201C4.69751 22.7511 5.63509 23.6679 6.79163 23.6679Z" stroke="#908573" stroke-width="2" stroke-miterlimit="1.5" stroke-linecap="square" stroke-linejoin="round"/>
<path d="M28.8278 23.6679C29.9843 23.6679 30.9219 22.7511 30.9219 21.6201C30.9219 20.4891 29.9843 19.5723 28.8278 19.5723C27.6712 19.5723 26.7336 20.4891 26.7336 21.6201C26.7336 22.7511 27.6712 23.6679 28.8278 23.6679Z" stroke="#908573" stroke-width="2" stroke-miterlimit="1.5" stroke-linecap="square" stroke-linejoin="round"/>
<path d="M20.3502 15.3221H8.61391C8.27583 15.2642 10.0632 9.38425 12.8643 9.40533C15.0859 9.42114 20.1568 9.40533 20.1568 9.40533" stroke="#1B1A1A" stroke-width="2" stroke-miterlimit="1.5" stroke-linecap="round" stroke-linejoin="round"/>
<path d="M14.977 15.3221H26.7133C27.0514 15.2642 25.5055 9.38425 22.7044 9.40533C20.4828 9.42114 15.4119 9.40533 15.4119 9.40533" stroke="#1B1A1A" stroke-width="2" stroke-miterlimit="1.5" stroke-linecap="round" stroke-linejoin="round"/>
<path d="M13.134 2.9729L13.0803 5.02246" stroke="#1B1A1A" stroke-width="2" stroke-miterlimit="1.5" stroke-linecap="round" stroke-linejoin="round"/>
<path d="M16.4382 3.06036L15.4876 4.88837" stroke="#1B1A1A" stroke-width="2" stroke-miterlimit="1.5" stroke-linecap="round" stroke-linejoin="round"/>
<path d="M16.3716 3.06036L17.3222 4.88837" stroke="#1B1A1A" stroke-width="2" stroke-miterlimit="1.5" stroke-linecap="round" stroke-linejoin="round"/>
<path d="M23.2355 2.9732L23.2815 5.02294" stroke="#1B1A1A" stroke-width="2" stroke-miterlimit="1.5" stroke-linecap="round" stroke-linejoin="round"/>
<path d="M21.0686 3.12721L19.4121 4.93283" stroke="#1B1A1A" stroke-width="2" stroke-miterlimit="1.5" stroke-linecap="round" stroke-linejoin="round"/>
<path d="M19.4121 3.12745L21.0686 4.93308" stroke="#1B1A1A" stroke-width="2" stroke-miterlimit="1.5" stroke-linecap="round" stroke-linejoin="round"/>
<path fill-rule="evenodd" clip-rule="evenodd" d="M24.8223 6.96946C25.2116 6.96946 25.5291 6.7045 25.5291 6.37031L25.5291 1.59938C25.5291 1.26518 25.2116 1 24.8223 1L10.7301 1C10.3409 1 10.0264 1.26518 10.0264 1.59938L10.0264 6.37031C10.0264 6.7045 10.3409 6.96946 10.7301 6.96946L24.8223 6.96946Z" stroke="#1B1A1A" stroke-width="2" stroke-miterlimit="1.5" stroke-linecap="round" stroke-linejoin="round"/>
<path d="M14.1274 2.99135L12.0314 2.9461" stroke="#1B1A1A" stroke-width="2" stroke-miterlimit="1.5" stroke-linecap="round" stroke-linejoin="round"/>
</svg>
