<svg width="45" height="31" viewBox="0 0 45 31" fill="none" xmlns="http://www.w3.org/2000/svg">
<path d="M12.917 7.33911L7.15015 14.6659L13.4085 15.4348" stroke="black" stroke-width="2" stroke-miterlimit="1.5" stroke-linecap="round" stroke-linejoin="round"/>
<path d="M7.1321 20.8005C10.5187 20.8005 13.2642 18.055 13.2642 14.6684C13.2642 11.2818 10.5187 8.53638 7.1321 8.53638C3.74547 8.53638 1 11.2818 1 14.6684C1 18.055 3.74547 20.8005 7.1321 20.8005Z" stroke="black" stroke-width="2" stroke-miterlimit="1.5" stroke-linecap="square" stroke-linejoin="round"/>
<path d="M17.8789 19.1406L15.3757 19.2837" stroke="black" stroke-width="2" stroke-miterlimit="1.5" stroke-linecap="round" stroke-linejoin="round"/>
<path d="M28.7691 20.8005C32.1557 20.8005 34.9012 18.055 34.9012 14.6684C34.9012 11.2818 32.1557 8.53638 28.7691 8.53638C25.3824 8.53638 22.637 11.2818 22.637 14.6684C22.637 18.055 25.3824 20.8005 28.7691 20.8005Z" stroke="#908573" stroke-width="2" stroke-miterlimit="1.5" stroke-linecap="square" stroke-linejoin="round"/>
<path d="M29.0101 14.6659L24.0928 5.34534C24.0928 5.34534 24.0926 4.23224 24.3608 3.6064C24.4502 3.41418 28.2494 3.35609 28.2941 3.80312C28.4729 5.93097 28.25 5.86839 27.043 5.81922" stroke="black" stroke-width="2" stroke-miterlimit="1.5" stroke-linecap="round" stroke-linejoin="round"/>
<path d="M24.0924 5.92212H12.9167" stroke="black" stroke-width="2" stroke-miterlimit="1.5" stroke-linecap="round" stroke-linejoin="round"/>
<path d="M12.2012 2.95361L14.6598 13.3336" stroke="black" stroke-width="2" stroke-miterlimit="1.5" stroke-linecap="round" stroke-linejoin="round"/>
<path d="M24.0928 5.92212C20.6507 9.52069 19.0409 11.2418 16.627 13.7451" stroke="black" stroke-width="2" stroke-miterlimit="1.5" stroke-linecap="round" stroke-linejoin="round"/>
<path fill-rule="evenodd" clip-rule="evenodd" d="M14.6594 1.87189C14.6594 1.87189 11.2621 3.99978 9.47402 2.35918C8.62467 1.60818 8.6252 1.29974 10.011 1.08069C11.5309 0.834827 12.916 1.16558 14.6594 1.87189Z" stroke="black" stroke-width="2" stroke-miterlimit="1.5" stroke-linecap="round" stroke-linejoin="round"/>
<path d="M16.4655 18.8883L15.8208 17.2822" stroke="black" stroke-width="2" stroke-miterlimit="1.5" stroke-linecap="round" stroke-linejoin="round"/>
<path d="M15.4018 17.2814C16.4915 17.2814 17.3749 16.398 17.3749 15.3083C17.3749 14.2186 16.4915 13.3352 15.4018 13.3352C14.3121 13.3352 13.4287 14.2186 13.4287 15.3083C13.4287 16.398 14.3121 17.2814 15.4018 17.2814Z" stroke="black" stroke-width="2" stroke-miterlimit="1.5" stroke-linecap="square" stroke-linejoin="round"/>
<path d="M24.1556 25.2031C24.6897 24.2314 25.5801 23.4071 27.1146 23.3859C28.5263 23.3975 29.5463 24.1482 30.0025 25.1957" stroke="black" stroke-width="2" stroke-miterlimit="1.5" stroke-linecap="round" stroke-linejoin="round"/>
<path d="M40.1308 29.1371C41.0544 29.1371 41.8031 28.3883 41.8031 27.4648C41.8031 26.5412 41.0544 25.7925 40.1308 25.7925C39.2072 25.7925 38.4585 26.5412 38.4585 27.4648C38.4585 28.3883 39.2072 29.1371 40.1308 29.1371Z" stroke="#908573" stroke-width="2" stroke-miterlimit="1.5" stroke-linecap="square" stroke-linejoin="round"/>
<path d="M27.1252 28.7096C28.0488 28.7096 28.7975 27.9609 28.7975 27.0373C28.7975 26.1137 28.0488 25.365 27.1252 25.365C26.2016 25.365 25.4529 26.1137 25.4529 27.0373C25.4529 27.9609 26.2016 28.7096 27.1252 28.7096Z" stroke="black" stroke-width="2" stroke-miterlimit="1.5" stroke-linecap="square" stroke-linejoin="round"/>
<path d="M36.8452 25.1621L29.9756 25.1621" stroke="black" stroke-width="2" stroke-miterlimit="1.5" stroke-linecap="round" stroke-linejoin="round"/>
<path d="M43.9465 12.4136L36.4504 9.78052" stroke="black" stroke-width="2" stroke-miterlimit="1.5" stroke-linecap="round" stroke-linejoin="round"/>
<path d="M40.0543 22.1073L37.0066 25.155" stroke="black" stroke-width="2" stroke-miterlimit="1.5" stroke-linecap="round" stroke-linejoin="round"/>
<path d="M40.0203 27.3556L40.0923 11.1638" stroke="black" stroke-width="2" stroke-miterlimit="1.5" stroke-linecap="round" stroke-linejoin="round"/>
</svg>
