<svg width="35" height="34" viewBox="0 0 35 34" fill="none" xmlns="http://www.w3.org/2000/svg">
<path d="M24.8282 14.6589C27.274 14.6589 29.2581 12.6766 29.2581 10.229C29.2581 7.78315 27.274 5.79907 24.8282 5.79907C22.3805 5.79907 20.3965 7.78315 20.3965 10.229C20.3965 12.6766 22.3805 14.6589 24.8282 14.6589Z" stroke="#908573" stroke-width="2" stroke-miterlimit="1.5" stroke-linecap="square" stroke-linejoin="round"/>
<path fill-rule="evenodd" clip-rule="evenodd" d="M22.1751 32.1167H10.8356C5.40364 32.1167 1 27.7105 1 22.2832C1 16.8559 5.40364 12.4497 10.8356 12.4497C14.8999 12.4497 18.3921 14.9247 19.8956 18.4496C20.6037 18.2026 21.3797 18.0684 22.1751 18.0684C26.0551 18.0684 29.1978 21.2159 29.1978 25.0926C29.1978 28.9693 26.0551 32.1167 22.1751 32.1167Z" stroke="black" stroke-width="2" stroke-miterlimit="1.5" stroke-linecap="round" stroke-linejoin="round"/>
<path d="M24.8289 3.08827V1" stroke="black" stroke-width="2" stroke-miterlimit="1.5" stroke-linecap="round" stroke-linejoin="round"/>
<path d="M31.8745 10.2256H34" stroke="black" stroke-width="2" stroke-miterlimit="1.5" stroke-linecap="round" stroke-linejoin="round"/>
<path d="M15.6661 10.2256H17.7869" stroke="black" stroke-width="2" stroke-miterlimit="1.5" stroke-linecap="round" stroke-linejoin="round"/>
<path d="M29.8545 15.1679L31.3 16.6135" stroke="black" stroke-width="2" stroke-miterlimit="1.5" stroke-linecap="round" stroke-linejoin="round"/>
<path d="M18.1116 3.79204L19.6111 5.2915" stroke="black" stroke-width="2" stroke-miterlimit="1.5" stroke-linecap="round" stroke-linejoin="round"/>
<path d="M31.4315 3.51846L29.9097 5.04028" stroke="black" stroke-width="2" stroke-miterlimit="1.5" stroke-linecap="round" stroke-linejoin="round"/>
</svg>
