<svg width="100" height="86" viewBox="0 0 100 86" fill="none" xmlns="http://www.w3.org/2000/svg">
<path d="M57.3243 77.6772H23.734V83.7475H2.00963V58.3336C2.00963 58.3336 1.85555 55.5781 2.78002 53.2454C4.16672 49.4804 7.8658 46.2882 10.177 43.6691C11.4096 42.1003 15.2604 15.3358 27.4325 15.2812" stroke="#1B1A1A" stroke-width="3.5" stroke-miterlimit="1.5" stroke-linecap="round" stroke-linejoin="round"/>
<path d="M42.6755 77.6772H76.2657V83.7475H97.9901V58.3336C97.9901 58.3336 98.1442 55.5781 97.2197 53.2454C95.833 49.4804 92.134 46.2882 89.8228 43.6691C88.5902 42.1003 84.7394 15.3358 72.5672 15.2812" stroke="#1B1A1A" stroke-width="3.5" stroke-miterlimit="1.5" stroke-linecap="round" stroke-linejoin="round"/>
<path d="M18.5617 66.8245C21.8691 66.8245 24.5504 64.2025 24.5504 60.9682C24.5504 57.7338 21.8691 55.1118 18.5617 55.1118C15.2543 55.1118 12.573 57.7338 12.573 60.9682C12.573 64.2025 15.2543 66.8245 18.5617 66.8245Z" stroke="#908573" stroke-width="3.5" stroke-miterlimit="1.5" stroke-linecap="square" stroke-linejoin="round"/>
<path d="M81.5807 66.8245C84.8882 66.8245 87.5694 64.2025 87.5694 60.9682C87.5694 57.7338 84.8882 55.1118 81.5807 55.1118C78.2733 55.1118 75.592 57.7338 75.592 60.9682C75.592 64.2025 78.2733 66.8245 81.5807 66.8245Z" stroke="#908573" stroke-width="3.5" stroke-miterlimit="1.5" stroke-linecap="square" stroke-linejoin="round"/>
<path d="M57.3371 42.9573H23.774C22.8072 42.7915 27.9185 25.9763 35.9292 26.0365C42.2825 26.0817 56.7841 26.0365 56.7841 26.0365" stroke="#1B1A1A" stroke-width="3.5" stroke-miterlimit="1.5" stroke-linecap="round" stroke-linejoin="round"/>
<path d="M41.9704 42.9573H75.5336C76.5004 42.7915 72.0796 25.9763 64.0689 26.0365C57.7156 26.0817 43.214 26.0365 43.214 26.0365" stroke="#1B1A1A" stroke-width="3.5" stroke-miterlimit="1.5" stroke-linecap="round" stroke-linejoin="round"/>
<path d="M36.7006 7.64233L36.5471 13.5036" stroke="#1B1A1A" stroke-width="3.5" stroke-miterlimit="1.5" stroke-linecap="round" stroke-linejoin="round"/>
<path d="M46.1489 7.89207L43.4305 13.1198" stroke="#1B1A1A" stroke-width="3.5" stroke-miterlimit="1.5" stroke-linecap="round" stroke-linejoin="round"/>
<path d="M45.9597 7.89207L48.6781 13.1198" stroke="#1B1A1A" stroke-width="3.5" stroke-miterlimit="1.5" stroke-linecap="round" stroke-linejoin="round"/>
<path d="M65.5882 7.64326L65.7196 13.505" stroke="#1B1A1A" stroke-width="3.5" stroke-miterlimit="1.5" stroke-linecap="round" stroke-linejoin="round"/>
<path d="M59.3922 8.08367L54.6549 13.2474" stroke="#1B1A1A" stroke-width="3.5" stroke-miterlimit="1.5" stroke-linecap="round" stroke-linejoin="round"/>
<path d="M54.6537 8.08416L59.391 13.2478" stroke="#1B1A1A" stroke-width="3.5" stroke-miterlimit="1.5" stroke-linecap="round" stroke-linejoin="round"/>
<path fill-rule="evenodd" clip-rule="evenodd" d="M70.1276 19.0713C71.2408 19.0713 72.1487 18.3136 72.1487 17.3579L72.1487 3.71408C72.1487 2.75837 71.2408 2 70.1276 2L29.8272 2C28.7139 2 27.8147 2.75837 27.8147 3.71408L27.8147 17.3579C27.8147 18.3136 28.7139 19.0713 29.8272 19.0713L70.1276 19.0713Z" stroke="#1B1A1A" stroke-width="3.5" stroke-miterlimit="1.5" stroke-linecap="round" stroke-linejoin="round"/>
<path d="M39.5406 7.69517L33.5464 7.56577" stroke="#1B1A1A" stroke-width="3.5" stroke-miterlimit="1.5" stroke-linecap="round" stroke-linejoin="round"/>
</svg>
