<svg width="128" height="85" viewBox="0 0 128 85" fill="none" xmlns="http://www.w3.org/2000/svg">
<path d="M36.3936 20.2952L19.75 41.4408L37.8123 43.66" stroke="black" stroke-width="3.5" stroke-miterlimit="1.5" stroke-linecap="round" stroke-linejoin="round"/>
<path d="M19.6978 59.1454C29.4719 59.1454 37.3955 51.2219 37.3955 41.4478C37.3955 31.6737 29.4719 23.7502 19.6978 23.7502C9.92366 23.7502 2 31.6737 2 41.4478C2 51.2219 9.92366 59.1454 19.6978 59.1454Z" stroke="black" stroke-width="3.5" stroke-miterlimit="1.5" stroke-linecap="square" stroke-linejoin="round"/>
<path d="M50.7137 54.3552L43.4893 54.7682" stroke="black" stroke-width="3.5" stroke-miterlimit="1.5" stroke-linecap="round" stroke-linejoin="round"/>
<path d="M82.1441 59.1454C91.9182 59.1454 99.8418 51.2219 99.8418 41.4478C99.8418 31.6737 91.9182 23.7502 82.1441 23.7502C72.3699 23.7502 64.4463 31.6737 64.4463 41.4478C64.4463 51.2219 72.3699 59.1454 82.1441 59.1454Z" stroke="#908573" stroke-width="3.5" stroke-miterlimit="1.5" stroke-linecap="square" stroke-linejoin="round"/>
<path d="M82.8397 41.4408L68.6479 14.541C68.6479 14.541 68.6474 11.3285 69.4215 9.52224C69.6796 8.96747 80.6444 8.79984 80.7734 10.09C81.2895 16.2312 80.6459 16.0506 77.1625 15.9086" stroke="black" stroke-width="3.5" stroke-miterlimit="1.5" stroke-linecap="round" stroke-linejoin="round"/>
<path d="M68.6468 16.2053H36.3928" stroke="black" stroke-width="3.5" stroke-miterlimit="1.5" stroke-linecap="round" stroke-linejoin="round"/>
<path d="M34.3276 7.63867L41.4235 37.5962" stroke="black" stroke-width="3.5" stroke-miterlimit="1.5" stroke-linecap="round" stroke-linejoin="round"/>
<path d="M68.6478 16.2053C58.7135 26.5911 54.0675 31.5582 47.1006 38.7831" stroke="black" stroke-width="3.5" stroke-miterlimit="1.5" stroke-linecap="round" stroke-linejoin="round"/>
<path fill-rule="evenodd" clip-rule="evenodd" d="M41.4222 4.51634C41.4222 4.51634 31.6175 10.6576 26.4569 5.92272C24.0056 3.75525 24.0071 2.86506 28.0066 2.23288C32.3931 1.5233 36.3906 2.47788 41.4222 4.51634Z" stroke="black" stroke-width="3.5" stroke-miterlimit="1.5" stroke-linecap="round" stroke-linejoin="round"/>
<path d="M46.6349 53.627L44.7744 48.9917" stroke="black" stroke-width="3.5" stroke-miterlimit="1.5" stroke-linecap="round" stroke-linejoin="round"/>
<path d="M43.5647 48.9896C46.7096 48.9896 49.2592 46.4401 49.2592 43.2951C49.2592 40.1501 46.7096 37.6006 43.5647 37.6006C40.4197 37.6006 37.8701 40.1501 37.8701 43.2951C37.8701 46.4401 40.4197 48.9896 43.5647 48.9896Z" stroke="black" stroke-width="3.5" stroke-miterlimit="1.5" stroke-linecap="square" stroke-linejoin="round"/>
<path d="M68.8281 71.8527C70.3696 69.0482 72.9394 66.6694 77.3681 66.6081C81.4425 66.6417 84.3863 68.8081 85.7028 71.8314" stroke="black" stroke-width="3.5" stroke-miterlimit="1.5" stroke-linecap="round" stroke-linejoin="round"/>
<path d="M114.934 83.2062C117.599 83.2062 119.76 81.0453 119.76 78.3798C119.76 75.7143 117.599 73.5535 114.934 73.5535C112.268 73.5535 110.107 75.7143 110.107 78.3798C110.107 81.0453 112.268 83.2062 114.934 83.2062Z" stroke="#908573" stroke-width="3.5" stroke-miterlimit="1.5" stroke-linecap="square" stroke-linejoin="round"/>
<path d="M77.3987 81.9723C80.0642 81.9723 82.2251 79.8115 82.2251 77.1459C82.2251 74.4804 80.0642 72.3196 77.3987 72.3196C74.7331 72.3196 72.5723 74.4804 72.5723 77.1459C72.5723 79.8115 74.7331 81.9723 77.3987 81.9723Z" stroke="black" stroke-width="3.5" stroke-miterlimit="1.5" stroke-linecap="square" stroke-linejoin="round"/>
<path d="M105.452 71.7339L85.6257 71.7339" stroke="black" stroke-width="3.5" stroke-miterlimit="1.5" stroke-linecap="round" stroke-linejoin="round"/>
<path d="M125.946 34.9409L104.312 27.3416" stroke="black" stroke-width="3.5" stroke-miterlimit="1.5" stroke-linecap="round" stroke-linejoin="round"/>
<path d="M114.713 62.9179L105.917 71.7139" stroke="black" stroke-width="3.5" stroke-miterlimit="1.5" stroke-linecap="round" stroke-linejoin="round"/>
<path d="M114.615 78.0648L114.823 31.334" stroke="black" stroke-width="3.5" stroke-miterlimit="1.5" stroke-linecap="round" stroke-linejoin="round"/>
</svg>
