<svg width="28" height="38" viewBox="0 0 28 38" fill="none" xmlns="http://www.w3.org/2000/svg">
<path d="M14.1977 23.8246C17.4934 23.8246 20.1538 21.1642 20.1538 17.8685V5.95616C20.1538 2.66042 17.4934 0 14.1977 0C10.9019 0 8.2415 2.66042 8.2415 5.95616V17.8685C8.2415 21.1642 10.9019 23.8246 14.1977 23.8246ZM25.9313 17.8685C24.9585 17.8685 24.1445 18.5832 23.9856 19.5561C23.1716 24.2217 19.1016 27.7954 14.1977 27.7954C9.29376 27.7954 5.22372 24.2217 4.40971 19.5561C4.25088 18.5832 3.43687 17.8685 2.46403 17.8685C1.25294 17.8685 0.299957 18.9406 0.478642 20.1318C1.45148 26.088 6.21641 30.7536 12.2123 31.6074V35.737C12.2123 36.8289 13.1057 37.7223 14.1977 37.7223C15.2896 37.7223 16.183 36.8289 16.183 35.737V31.6074C22.1789 30.7536 26.9438 26.088 27.9167 20.1318C28.1152 18.9406 27.1424 17.8685 25.9313 17.8685Z" fill="#51A5F7"/>
</svg>
