<svg width="27" height="39" viewBox="0 0 27 39" fill="none" xmlns="http://www.w3.org/2000/svg">
<path d="M23.1713 9.85715V29.0001H26.9999V9.85715H23.1713ZM17.4284 34.743H9.77121V38.5716H17.4284V34.743ZM4.02831 29.0001V9.85715H0.199715V29.0001H4.02831ZM9.77121 4.11425H17.4284V0.285652H9.77121V4.11425ZM9.77121 34.743C7.91243 34.743 6.71025 34.7392 5.82584 34.6205C4.99504 34.5076 4.73469 34.3276 4.5892 34.1822L1.88238 36.889C2.85868 37.8653 4.06086 38.2462 5.31472 38.4147C6.5169 38.5755 8.01963 38.5716 9.77121 38.5716V34.743ZM0.199715 29.0001C0.199715 30.7517 0.195886 32.2564 0.356687 33.4566C0.525145 34.7105 0.906092 35.9146 1.88238 36.889L4.5892 34.1822C4.44372 34.0367 4.26377 33.7763 4.15083 32.9455C4.03214 32.063 4.02831 30.8589 4.02831 29.0001H0.199715ZM23.1713 29.0001C23.1713 30.8589 23.1675 32.0611 23.0488 32.9455C22.9359 33.7763 22.7559 34.0367 22.6104 34.1822L25.3172 36.889C26.2935 35.9127 26.6745 34.7105 26.8429 33.4566C27.0037 32.2544 26.9999 30.7517 26.9999 29.0001H23.1713ZM17.4284 38.5716C19.18 38.5716 20.6846 38.5755 21.8849 38.4147C23.1388 38.2462 24.3429 37.8653 25.3172 36.889L22.6104 34.1822C22.4649 34.3276 22.2046 34.5076 21.3738 34.6205C20.4894 34.7392 19.2872 34.743 17.4284 34.743V38.5716ZM26.9999 9.85715C26.9999 8.10557 27.0037 6.60093 26.8429 5.40066C26.6745 4.14679 26.2935 2.9427 25.3172 1.96832L22.6104 4.67514C22.7559 4.82063 22.9359 5.08097 23.0488 5.91178C23.1675 6.79427 23.1713 7.99836 23.1713 9.85715H26.9999ZM17.4284 4.11425C19.2872 4.11425 20.4894 4.11808 21.3738 4.23677C22.2046 4.34971 22.4649 4.52965 22.6104 4.67514L25.3172 1.96832C24.3409 0.992029 23.1388 0.611083 21.8849 0.442625C20.6827 0.281824 19.18 0.285652 17.4284 0.285652V4.11425ZM4.02831 9.85715C4.02831 7.99836 4.03214 6.79618 4.15083 5.91178C4.26377 5.08097 4.44372 4.82063 4.5892 4.67514L1.88238 1.96832C0.906092 2.94461 0.525145 4.14679 0.356687 5.40066C0.195886 6.60284 0.199715 8.10557 0.199715 9.85715H4.02831ZM9.77121 0.285652C8.01963 0.285652 6.51499 0.281824 5.31472 0.442625C4.06086 0.611083 2.85676 0.992029 1.88238 1.96832L4.5892 4.67514C4.73469 4.52965 4.99504 4.34971 5.82584 4.23677C6.70833 4.11808 7.91243 4.11425 9.77121 4.11425V0.285652Z" fill="#44584D"/>
<path d="M9.77123 6.02855H17.4284C17.9361 6.02855 18.423 5.82687 18.782 5.46786C19.141 5.10886 19.3427 4.62195 19.3427 4.11425C19.3427 3.60655 19.141 3.11964 18.782 2.76064C18.423 2.40164 17.9361 2.19995 17.4284 2.19995H9.77123C9.26353 2.19995 8.77662 2.40164 8.41762 2.76064C8.05862 3.11964 7.85693 3.60655 7.85693 4.11425C7.85693 4.62195 8.05862 5.10886 8.41762 5.46786C8.77662 5.82687 9.26353 6.02855 9.77123 6.02855Z" fill="#44584D"/>
<path d="M7.85693 30.9143H19.3427" stroke="#44584D" stroke-width="3" stroke-linecap="round"/>
</svg>
