<svg width="27" height="39" viewBox="0 0 27 39" fill="none" xmlns="http://www.w3.org/2000/svg">
<path d="M23.1713 9.57151V28.7145H26.9999V9.57151H23.1713ZM17.4284 34.4574H9.77121V38.286H17.4284V34.4574ZM4.02831 28.7145V9.57151H0.199715V28.7145H4.02831ZM9.77121 3.82861H17.4284V7.91012e-06H9.77121V3.82861ZM9.77121 34.4574C7.91243 34.4574 6.71025 34.4536 5.82584 34.3349C4.99504 34.2219 4.73469 34.042 4.5892 33.8965L1.88238 36.6033C2.85868 37.5796 4.06086 37.9606 5.31472 38.129C6.5169 38.2898 8.01963 38.286 9.77121 38.286V34.4574ZM0.199715 28.7145C0.199715 30.4661 0.195886 31.9707 0.356687 33.171C0.525145 34.4249 0.906092 35.6289 1.88238 36.6033L4.5892 33.8965C4.44372 33.751 4.26377 33.4907 4.15083 32.6599C4.03214 31.7774 4.02831 30.5733 4.02831 28.7145H0.199715ZM23.1713 28.7145C23.1713 30.5733 23.1675 31.7755 23.0488 32.6599C22.9359 33.4907 22.7559 33.751 22.6104 33.8965L25.3172 36.6033C26.2935 35.627 26.6745 34.4249 26.8429 33.171C27.0037 31.9688 26.9999 30.4661 26.9999 28.7145H23.1713ZM17.4284 38.286C19.18 38.286 20.6846 38.2898 21.8849 38.129C23.1388 37.9606 24.3429 37.5796 25.3172 36.6033L22.6104 33.8965C22.4649 34.042 22.2046 34.2219 21.3738 34.3349C20.4894 34.4536 19.2872 34.4574 17.4284 34.4574V38.286ZM26.9999 9.57151C26.9999 7.81992 27.0037 6.31528 26.8429 5.11502C26.6745 3.86115 26.2935 2.65706 25.3172 1.68268L22.6104 4.3895C22.7559 4.53498 22.9359 4.79533 23.0488 5.62613C23.1675 6.50863 23.1713 7.71272 23.1713 9.57151H26.9999ZM17.4284 3.82861C19.2872 3.82861 20.4894 3.83244 21.3738 3.95112C22.2046 4.06407 22.4649 4.24401 22.6104 4.3895L25.3172 1.68268C24.3409 0.706384 23.1388 0.325439 21.8849 0.15698C20.6827 -0.00382065 19.18 7.91012e-06 17.4284 7.91012e-06V3.82861ZM4.02831 9.57151C4.02831 7.71272 4.03214 6.51054 4.15083 5.62613C4.26377 4.79533 4.44372 4.53498 4.5892 4.3895L1.88238 1.68268C0.906092 2.65897 0.525145 3.86115 0.356687 5.11502C0.195886 6.3172 0.199715 7.81992 0.199715 9.57151H4.02831ZM9.77121 7.91012e-06C8.01963 7.91012e-06 6.51499 -0.00382065 5.31472 0.15698C4.06086 0.325439 2.85676 0.706384 1.88238 1.68268L4.5892 4.3895C4.73469 4.24401 4.99504 4.06407 5.82584 3.95112C6.70833 3.83244 7.91243 3.82861 9.77121 3.82861V7.91012e-06Z" fill="#DAB794"/>
<path d="M9.77123 5.74291H17.4284C17.9361 5.74291 18.423 5.54122 18.782 5.18222C19.141 4.82322 19.3427 4.33631 19.3427 3.82861C19.3427 3.3209 19.141 2.83399 18.782 2.47499C18.423 2.11599 17.9361 1.91431 17.4284 1.91431H9.77123C9.26353 1.91431 8.77662 2.11599 8.41762 2.47499C8.05862 2.83399 7.85693 3.3209 7.85693 3.82861C7.85693 4.33631 8.05862 4.82322 8.41762 5.18222C8.77662 5.54122 9.26353 5.74291 9.77123 5.74291Z" fill="#DAB794"/>
<path d="M7.85693 30.6287H19.3427" stroke="#D8B693" stroke-width="3" stroke-linecap="round"/>
</svg>
