<svg width="29" height="35" viewBox="0 0 29 35" fill="none" xmlns="http://www.w3.org/2000/svg">
<path d="M14.1807 1.02317C14.2345 1.33951 15.2643 7.38369 15.2643 9.69233C15.2643 13.2125 13.3932 15.7231 10.6268 16.7327L11.4951 32.7585C11.5422 33.6806 10.8086 34.4614 9.87973 34.4614H5.57207C4.64997 34.4614 3.90959 33.6873 3.9567 32.7585L4.82496 16.7327C2.05191 15.7231 0.1875 13.2058 0.1875 9.69233C0.1875 7.37696 1.2173 1.33951 1.27115 1.02317C1.48653 -0.34317 4.32016 -0.363363 4.49516 1.0972V10.601C4.58266 10.8298 5.5115 10.8164 5.57207 10.601C5.6663 8.8981 6.1038 1.23182 6.11053 1.05682C6.33264 -0.34317 9.11916 -0.34317 9.33454 1.05682C9.348 1.23855 9.77877 8.8981 9.873 10.601C9.93358 10.8164 10.8691 10.8298 10.9499 10.601V1.0972C11.1249 -0.356632 13.9653 -0.34317 14.1807 1.02317ZM22.2037 20.2528L21.1941 32.7114C21.1133 33.6537 21.8604 34.4614 22.8027 34.4614H26.5719C27.4671 34.4614 28.1873 33.7412 28.1873 32.846V1.61547C28.1873 0.727014 27.4671 9.61991e-05 26.5719 9.61991e-05C21.0191 9.61991e-05 11.6701 12.0144 22.2037 20.2528Z" fill="#5ECFEC"/>
</svg>
