<svg width="40" height="35" viewBox="0 0 40 35" fill="none" xmlns="http://www.w3.org/2000/svg">
<g id="&#240;&#159;&#166;&#134; icon &#34;message&#34;">
<path id="Vector" d="M0.777832 3.8444C0.777832 2.8248 1.18287 1.84696 1.90383 1.126C2.62479 0.405034 3.60263 0 4.62223 0H35.3774C36.397 0 37.3749 0.405034 38.0958 1.126C38.8168 1.84696 39.2218 2.8248 39.2218 3.8444V24.9886C39.2218 26.0082 38.8168 26.986 38.0958 27.707C37.3749 28.428 36.397 28.833 35.3774 28.833H26.5622L21.3588 34.0364C20.9984 34.3967 20.5095 34.5992 19.9998 34.5992C19.4901 34.5992 19.0013 34.3967 18.6408 34.0364L13.4374 28.833H4.62223C3.60263 28.833 2.62479 28.428 1.90383 27.707C1.18287 26.986 0.777832 26.0082 0.777832 24.9886V3.8444ZM35.3774 3.8444H4.62223V24.9886H14.2332C14.743 24.9887 15.2318 25.1913 15.5922 25.5518L19.9998 29.9594L24.4074 25.5518C24.7678 25.1913 25.2567 24.9887 25.7664 24.9886H35.3774V3.8444ZM8.46663 10.5721C8.46663 10.0623 8.66915 9.57338 9.02963 9.2129C9.39011 8.85242 9.87903 8.6499 10.3888 8.6499H29.6108C30.1206 8.6499 30.6095 8.85242 30.97 9.2129C31.3305 9.57338 31.533 10.0623 31.533 10.5721C31.533 11.0819 31.3305 11.5708 30.97 11.9313C30.6095 12.2918 30.1206 12.4943 29.6108 12.4943H10.3888C9.87903 12.4943 9.39011 12.2918 9.02963 11.9313C8.66915 11.5708 8.46663 11.0819 8.46663 10.5721ZM8.46663 18.2609C8.46663 17.7511 8.66915 17.2622 9.02963 16.9017C9.39011 16.5412 9.87903 16.3387 10.3888 16.3387H21.922C22.4318 16.3387 22.9207 16.5412 23.2812 16.9017C23.6417 17.2622 23.8442 17.7511 23.8442 18.2609C23.8442 18.7707 23.6417 19.2596 23.2812 19.6201C22.9207 19.9806 22.4318 20.1831 21.922 20.1831H10.3888C9.87903 20.1831 9.39011 19.9806 9.02963 19.6201C8.66915 19.2596 8.46663 18.7707 8.46663 18.2609Z" fill="black"/>
</g>
</svg>
