<svg width="209" height="60" viewBox="0 0 209 60" fill="none" xmlns="http://www.w3.org/2000/svg">
<path d="M207.839 53.0802C207.839 56.2777 205.178 58.8677 201.887 58.8677H7.12045C3.83111 58.8677 1.16113 56.2777 1.16113 53.0802V6.92688C1.16113 3.73092 3.83111 1.13184 7.12045 1.13184H201.886C205.178 1.13184 207.837 3.73092 207.837 6.92688L207.839 53.0802Z" fill="white"/>
<path d="M201.259 1.20188C204.843 1.20188 207.76 4.0275 207.76 7.5V52.5C207.76 55.9725 204.843 58.7981 201.259 58.7981H7.74074C4.15678 58.7981 1.24045 55.9725 1.24045 52.5V7.5C1.24045 4.0275 4.15678 1.20188 7.74074 1.20188H201.259ZM201.259 3.8147e-06H7.74074C3.48527 3.8147e-06 0 3.37688 0 7.5V52.5C0 56.6231 3.48527 60 7.74074 60H201.259C205.515 60 209 56.6231 209 52.5V7.5C209 3.37688 205.515 3.8147e-06 201.259 3.8147e-06Z" fill="#A6A6A6"/>
<path d="M46.6426 29.6762C46.5977 24.8417 50.7281 22.4897 50.917 22.3802C48.5777 19.0757 44.952 18.6242 43.6779 18.5882C40.6326 18.2777 37.6788 20.3537 36.1275 20.3537C34.5453 20.3537 32.1565 18.6182 29.582 18.6692C26.2689 18.7187 23.1695 20.5772 21.4697 23.4632C17.9616 29.3477 20.5779 37.9952 23.939 42.7517C25.6203 45.0812 27.5849 47.6822 30.1563 47.5907C32.6721 47.4902 33.6118 46.0367 36.6477 46.0367C39.6558 46.0367 40.5382 47.5907 43.1608 47.5322C45.8607 47.4902 47.5606 45.1922 49.1831 42.8417C51.126 40.1717 51.9063 37.5422 51.9372 37.4072C51.8738 37.3862 46.6936 35.4707 46.6426 29.6762Z" fill="black"/>
<path d="M41.6885 15.4592C43.0416 13.8197 43.9674 11.5892 43.7104 9.32568C41.752 9.40968 39.3028 10.6382 37.8924 12.2417C36.6446 13.6547 35.5299 15.9707 35.8179 18.1487C38.0178 18.3077 40.2766 17.0732 41.6885 15.4592Z" fill="black"/>
<path d="M75.9365 15.0135C75.9365 16.779 75.39 18.108 74.2985 19.0005C73.2876 19.824 71.8509 20.2365 69.99 20.2365C69.0673 20.2365 68.2778 20.1975 67.6167 20.1195V10.473C68.479 10.338 69.4079 10.269 70.4111 10.269C72.1837 10.269 73.5198 10.6425 74.4208 11.3895C75.4302 12.234 75.9365 13.4415 75.9365 15.0135ZM74.2258 15.057C74.2258 13.9125 73.913 13.035 73.2876 12.423C72.6621 11.8125 71.7487 11.5065 70.5458 11.5065C70.0349 11.5065 69.5999 11.5395 69.2392 11.6085V18.942C69.4389 18.972 69.8042 18.9855 70.3353 18.9855C71.5769 18.9855 72.5352 18.651 73.2102 17.982C73.8852 17.313 74.2258 16.338 74.2258 15.057Z" fill="black"/>
<path d="M85.0072 16.5556C85.0072 17.6431 84.6867 18.5341 84.0458 19.2331C83.3739 19.9516 82.4837 20.3101 81.3721 20.3101C80.3008 20.3101 79.4478 19.9666 78.8115 19.2766C78.1767 18.5881 77.8594 17.7196 77.8594 16.6726C77.8594 15.5776 78.186 14.6791 78.8424 13.9816C79.4989 13.2841 80.3813 12.9346 81.4929 12.9346C82.5642 12.9346 83.425 13.2781 84.0767 13.9666C84.696 14.6356 85.0072 15.4996 85.0072 16.5556ZM83.3243 16.6066C83.3243 15.9541 83.1788 15.3946 82.8893 14.9281C82.5487 14.3641 82.0642 14.0821 81.4341 14.0821C80.7823 14.0821 80.2869 14.3641 79.9463 14.9281C79.6552 15.3946 79.5113 15.9631 79.5113 16.6351C79.5113 17.2876 79.6568 17.8471 79.9463 18.3136C80.2977 18.8776 80.7869 19.1596 81.4186 19.1596C82.0378 19.1596 82.524 18.8731 82.8738 18.2986C83.1742 17.8231 83.3243 17.2591 83.3243 16.6066Z" fill="black"/>
<path d="M97.1691 13.0786L94.8855 20.1496H93.3993L92.4534 17.0791C92.2134 16.3126 92.0184 15.5506 91.8667 14.7946H91.8372C91.6964 15.5716 91.5013 16.3321 91.2505 17.0791L90.2457 20.1496H88.7425L86.5952 13.0786H88.2626L89.0877 16.4401C89.2874 17.2351 89.4515 17.9926 89.5831 18.7096H89.6126C89.7333 18.1186 89.933 17.3656 90.2148 16.4551L91.2505 13.0801H92.5726L93.565 16.3831C93.8049 17.1886 94 17.9641 94.1502 18.7111H94.1951C94.305 17.9836 94.4706 17.2081 94.6905 16.3831L95.576 13.0801H97.1691V13.0786Z" fill="black"/>
<path d="M105.581 20.1497H103.958V16.0997C103.958 14.8517 103.469 14.2277 102.487 14.2277C102.006 14.2277 101.617 14.3987 101.315 14.7422C101.017 15.0857 100.865 15.4907 100.865 15.9542V20.1482H99.2424V15.0992C99.2424 14.4782 99.2223 13.8047 99.1836 13.0757H100.609L100.685 14.1812H100.73C100.919 13.8377 101.201 13.5542 101.571 13.3277C102.011 13.0637 102.503 12.9302 103.042 12.9302C103.723 12.9302 104.289 13.1432 104.74 13.5707C105.3 14.0942 105.581 14.8757 105.581 15.9137V20.1497V20.1497Z" fill="black"/>
<path d="M110.054 20.1495H108.434V9.83398H110.054V20.1495Z" fill="black"/>
<path d="M119.607 16.5556C119.607 17.6431 119.286 18.5341 118.645 19.2331C117.973 19.9516 117.082 20.3101 115.972 20.3101C114.899 20.3101 114.046 19.9666 113.411 19.2766C112.776 18.5881 112.459 17.7196 112.459 16.6726C112.459 15.5776 112.786 14.6791 113.442 13.9816C114.098 13.2841 114.981 12.9346 116.091 12.9346C117.164 12.9346 118.023 13.2781 118.676 13.9666C119.296 14.6356 119.607 15.4996 119.607 16.5556ZM117.922 16.6066C117.922 15.9541 117.777 15.3946 117.487 14.9281C117.148 14.3641 116.662 14.0821 116.034 14.0821C115.38 14.0821 114.885 14.3641 114.546 14.9281C114.255 15.3946 114.111 15.9631 114.111 16.6351C114.111 17.2876 114.256 17.8471 114.546 18.3136C114.897 18.8776 115.387 19.1596 116.018 19.1596C116.637 19.1596 117.122 18.8731 117.472 18.2986C117.774 17.8231 117.922 17.2591 117.922 16.6066Z" fill="black"/>
<path d="M127.459 20.1496H126.002L125.881 19.3351H125.836C125.338 19.9846 124.627 20.3101 123.704 20.3101C123.015 20.3101 122.458 20.0956 122.039 19.6696C121.658 19.2826 121.467 18.8011 121.467 18.2296C121.467 17.3656 121.839 16.7071 122.587 16.2511C123.333 15.7951 124.382 15.5716 125.734 15.5821V15.4501C125.734 14.5186 125.229 14.0536 124.218 14.0536C123.498 14.0536 122.864 14.2291 122.316 14.5771L121.986 13.5451C122.664 13.1386 123.502 12.9346 124.489 12.9346C126.397 12.9346 127.353 13.9096 127.353 15.8596V18.4636C127.353 19.1701 127.389 19.7326 127.459 20.1496ZM125.774 17.7196V16.6291C123.985 16.5991 123.09 17.0746 123.09 18.0541C123.09 18.4231 123.192 18.6991 123.401 18.8836C123.61 19.0681 123.876 19.1596 124.194 19.1596C124.55 19.1596 124.882 19.0501 125.186 18.8326C125.491 18.6136 125.678 18.3361 125.748 17.9956C125.765 17.9191 125.774 17.8261 125.774 17.7196Z" fill="black"/>
<path d="M136.678 20.1495H135.238L135.162 19.014H135.118C134.658 19.878 133.874 20.31 132.774 20.31C131.894 20.31 131.162 19.9755 130.581 19.3065C130.001 18.6375 129.711 17.769 129.711 16.7025C129.711 15.558 130.026 14.631 130.657 13.923C131.269 13.263 132.018 12.933 132.91 12.933C133.89 12.933 134.576 13.2525 134.966 13.893H134.997V9.83398H136.621V18.2445C136.621 18.933 136.639 19.5675 136.678 20.1495ZM134.997 17.1675V15.9885C134.997 15.7845 134.981 15.6195 134.952 15.4935C134.861 15.1155 134.664 14.7975 134.365 14.541C134.063 14.2845 133.699 14.1555 133.28 14.1555C132.675 14.1555 132.201 14.388 131.853 14.8545C131.507 15.321 131.332 15.9165 131.332 16.644C131.332 17.343 131.498 17.91 131.831 18.3465C132.182 18.8115 132.656 19.044 133.249 19.044C133.781 19.044 134.207 18.8505 134.531 18.462C134.844 18.1035 134.997 17.6715 134.997 17.1675Z" fill="black"/>
<path d="M150.554 16.5556C150.554 17.6431 150.234 18.5341 149.593 19.2331C148.921 19.9516 148.032 20.3101 146.919 20.3101C145.849 20.3101 144.996 19.9666 144.358 19.2766C143.724 18.5881 143.406 17.7196 143.406 16.6726C143.406 15.5776 143.733 14.6791 144.389 13.9816C145.046 13.2841 145.928 12.9346 147.041 12.9346C148.111 12.9346 148.973 13.2781 149.624 13.9666C150.243 14.6356 150.554 15.4996 150.554 16.5556ZM148.873 16.6066C148.873 15.9541 148.727 15.3946 148.438 14.9281C148.096 14.3641 147.613 14.0821 146.981 14.0821C146.331 14.0821 145.835 14.3641 145.493 14.9281C145.202 15.3946 145.058 15.9631 145.058 16.6351C145.058 17.2876 145.204 17.8471 145.493 18.3136C145.845 18.8776 146.334 19.1596 146.965 19.1596C147.585 19.1596 148.072 18.8731 148.422 18.2986C148.721 17.8231 148.873 17.2591 148.873 16.6066Z" fill="black"/>
<path d="M159.278 20.1497H157.657V16.0997C157.657 14.8517 157.168 14.2277 156.185 14.2277C155.703 14.2277 155.314 14.3987 155.014 14.7422C154.714 15.0857 154.564 15.4907 154.564 15.9542V20.1482H152.94V15.0992C152.94 14.4782 152.921 13.8047 152.882 13.0757H154.307L154.382 14.1812H154.427C154.618 13.8377 154.9 13.5542 155.268 13.3277C155.709 13.0637 156.2 12.9302 156.74 12.9302C157.42 12.9302 157.987 13.1432 158.437 13.5707C158.999 14.0942 159.278 14.8757 159.278 15.9137V20.1497V20.1497Z" fill="black"/>
<path d="M170.197 14.2559H168.411V17.6909C168.411 18.5639 168.728 19.0004 169.357 19.0004C169.648 19.0004 169.889 18.9764 170.08 18.9269L170.121 20.1194C169.801 20.2364 169.38 20.2949 168.861 20.2949C168.22 20.2949 167.722 20.1059 167.361 19.7279C166.999 19.3499 166.819 18.7139 166.819 17.8214V14.2559H165.752V13.0784H166.819V11.7824L168.409 11.3174V13.0769H170.196V14.2559H170.197Z" fill="black"/>
<path d="M178.786 20.1495H177.162V16.1295C177.162 14.862 176.673 14.2275 175.693 14.2275C174.941 14.2275 174.427 14.595 174.145 15.33C174.097 15.4845 174.069 15.6735 174.069 15.8955V20.148H172.448V9.83398H174.069V14.0955H174.1C174.611 13.32 175.343 12.933 176.292 12.933C176.964 12.933 177.52 13.146 177.961 13.5735C178.511 14.106 178.786 14.898 178.786 15.945V20.1495V20.1495Z" fill="black"/>
<path d="M187.646 16.2794C187.646 16.5614 187.624 16.7984 187.586 16.9919H182.72C182.741 17.6909 182.974 18.2234 183.424 18.5924C183.836 18.9224 184.367 19.0874 185.017 19.0874C185.737 19.0874 186.394 18.9764 186.985 18.7529L187.239 19.8449C186.547 20.1359 185.732 20.2814 184.79 20.2814C183.66 20.2814 182.769 19.9589 182.125 19.3139C181.478 18.6689 181.158 17.8034 181.158 16.7174C181.158 15.6509 181.457 14.7629 182.059 14.0549C182.687 13.2989 183.537 12.9209 184.61 12.9209C185.66 12.9209 186.457 13.2989 186.996 14.0549C187.431 14.6549 187.646 15.3974 187.646 16.2794ZM186.098 15.8729C186.11 15.4064 186.003 15.0044 185.784 14.6654C185.502 14.2289 185.073 14.0099 184.492 14.0099C183.963 14.0099 183.531 14.2229 183.201 14.6504C182.932 14.9909 182.772 15.3974 182.72 15.8729H186.098Z" fill="black"/>
<path d="M83.0502 47.2559H79.5343L77.6084 41.3924H70.9142L69.0797 47.2559H65.6567L72.289 27.2939H76.3854L83.0502 47.2559ZM77.0279 38.9324L75.2862 33.7199C75.102 33.1874 74.7567 31.9334 74.2474 29.9594H74.1855C73.9827 30.8084 73.656 32.0624 73.2071 33.7199L71.4964 38.9324H77.0279V38.9324Z" fill="black"/>
<path d="M100.106 39.8819C100.106 42.3299 99.4235 44.2649 98.058 45.6854C96.835 46.9499 95.3163 47.5814 93.5034 47.5814C91.5465 47.5814 90.1408 46.9004 89.2847 45.5384H89.2228V53.1209H85.9221V37.6004C85.9221 36.0614 85.8803 34.4819 85.7998 32.8619H88.7026L88.8868 35.1434H88.9487C90.0495 33.4244 91.7199 32.5664 93.9616 32.5664C95.7141 32.5664 97.1771 33.2369 98.3475 34.5794C99.521 35.9234 100.106 37.6904 100.106 39.8819ZM96.7437 39.9989C96.7437 38.5979 96.4186 37.4429 95.7652 36.5339C95.0515 35.5859 94.0932 35.1119 92.8919 35.1119C92.0775 35.1119 91.3375 35.3759 90.6765 35.8964C90.0139 36.4214 89.5804 37.1069 89.3776 37.9559C89.2754 38.3519 89.2243 38.6759 89.2243 38.9309V41.3309C89.2243 42.3779 89.5556 43.2614 90.2182 43.9829C90.8808 44.7044 91.7416 45.0644 92.8005 45.0644C94.0437 45.0644 95.0113 44.5994 95.7033 43.6724C96.3969 42.7439 96.7437 41.5199 96.7437 39.9989Z" fill="black"/>
<path d="M117.193 39.8819C117.193 42.3299 116.51 44.2649 115.143 45.6854C113.922 46.9499 112.403 47.5814 110.59 47.5814C108.633 47.5814 107.228 46.9004 106.373 45.5384H106.311V53.1209H103.01V37.6004C103.01 36.0614 102.969 34.4819 102.888 32.8619H105.791L105.975 35.1434H106.037C107.136 33.4244 108.807 32.5664 111.05 32.5664C112.801 32.5664 114.264 33.2369 115.437 34.5794C116.606 35.9234 117.193 37.6904 117.193 39.8819ZM113.831 39.9989C113.831 38.5979 113.504 37.4429 112.851 36.5339C112.137 35.5859 111.182 35.1119 109.979 35.1119C109.163 35.1119 108.424 35.3759 107.762 35.8964C107.099 36.4214 106.667 37.1069 106.464 37.9559C106.364 38.3519 106.311 38.6759 106.311 38.9309V41.3309C106.311 42.3779 106.642 43.2614 107.302 43.9829C107.965 44.7029 108.825 45.0644 109.887 45.0644C111.131 45.0644 112.098 44.5994 112.79 43.6724C113.484 42.7439 113.831 41.5199 113.831 39.9989Z" fill="black"/>
<path d="M136.297 41.658C136.297 43.356 135.689 44.7375 134.467 45.804C133.125 46.9695 131.256 47.5515 128.855 47.5515C126.638 47.5515 124.861 47.1375 123.516 46.308L124.28 43.6425C125.729 44.4915 127.319 44.9175 129.052 44.9175C130.295 44.9175 131.263 44.6445 131.958 44.1015C132.65 43.5585 132.995 42.8295 132.995 41.9205C132.995 41.1105 132.71 40.428 132.139 39.8745C131.571 39.321 130.622 38.8065 129.296 38.331C125.689 37.0275 123.887 35.118 123.887 32.607C123.887 30.966 124.519 29.6205 125.784 28.5735C127.044 27.525 128.725 27.0015 130.828 27.0015C132.702 27.0015 134.26 27.318 135.503 27.9495L134.678 30.5565C133.517 29.9445 132.204 29.6385 130.735 29.6385C129.574 29.6385 128.666 29.916 128.016 30.468C127.467 30.9615 127.191 31.563 127.191 32.2755C127.191 33.0645 127.505 33.717 128.137 34.23C128.686 34.704 129.685 35.217 131.134 35.7705C132.907 36.462 134.209 37.2705 135.046 38.1975C135.881 39.1215 136.297 40.278 136.297 41.658Z" fill="black"/>
<path d="M147.21 35.2619H143.572V42.2504C143.572 44.0279 144.213 44.9159 145.498 44.9159C146.088 44.9159 146.577 44.8664 146.964 44.7674L147.055 47.1959C146.405 47.4314 145.549 47.5499 144.488 47.5499C143.185 47.5499 142.166 47.1644 141.431 46.3949C140.698 45.6239 140.33 44.3309 140.33 42.5144V35.2589H138.163V32.8589H140.33V30.2234L143.572 29.2754V32.8589H147.21V35.2619Z" fill="black"/>
<path d="M163.625 39.9404C163.625 42.1529 162.972 43.9694 161.668 45.3899C160.301 46.8524 158.487 47.5814 156.225 47.5814C154.045 47.5814 152.31 46.8809 151.016 45.4799C149.721 44.0789 149.074 42.3104 149.074 40.1789C149.074 37.9484 149.74 36.1214 151.076 34.7009C152.409 33.2789 154.208 32.5679 156.47 32.5679C158.65 32.5679 160.404 33.2684 161.727 34.6709C162.994 36.0314 163.625 37.7879 163.625 39.9404ZM160.201 40.0439C160.201 38.7164 159.908 37.5779 159.315 36.6284C158.623 35.4794 157.634 34.9064 156.352 34.9064C155.025 34.9064 154.017 35.4809 153.325 36.6284C152.732 37.5794 152.44 38.7359 152.44 40.1039C152.44 41.4314 152.732 42.5699 153.325 43.5179C154.039 44.6669 155.036 45.2399 156.323 45.2399C157.583 45.2399 158.572 44.6549 159.286 43.4879C159.894 42.5204 160.201 41.3699 160.201 40.0439Z" fill="black"/>
<path d="M174.354 35.6744C174.027 35.6159 173.679 35.5859 173.314 35.5859C172.153 35.5859 171.255 36.0104 170.623 36.8609C170.073 37.6109 169.798 38.5589 169.798 39.7034V47.2559H166.499L166.53 37.3949C166.53 35.7359 166.488 34.2254 166.406 32.8634H169.281L169.401 35.6174H169.493C169.841 34.6709 170.391 33.9089 171.143 33.3374C171.878 32.8229 172.673 32.5664 173.529 32.5664C173.834 32.5664 174.109 32.5874 174.354 32.6249V35.6744Z" fill="black"/>
<path d="M189.115 39.378C189.115 39.951 189.076 40.434 188.994 40.8285H179.092C179.131 42.2505 179.61 43.338 180.529 44.088C181.364 44.7585 182.443 45.0945 183.768 45.0945C185.234 45.0945 186.572 44.868 187.774 44.4135L188.292 46.6335C186.886 47.2275 185.226 47.523 183.311 47.523C181.008 47.523 179.199 46.866 177.883 45.5535C176.571 44.241 175.913 42.4785 175.913 40.2675C175.913 38.097 176.524 36.2895 177.749 34.848C179.031 33.309 180.763 32.5396 182.943 32.5396C185.084 32.5396 186.705 33.309 187.805 34.848C188.677 36.0705 189.115 37.5825 189.115 39.378ZM185.968 38.5485C185.989 37.6005 185.774 36.7815 185.327 36.09C184.756 35.2005 183.878 34.7565 182.697 34.7565C181.618 34.7565 180.74 35.1901 180.069 36.0601C179.52 36.7515 179.193 37.581 179.092 38.547H185.968V38.5485Z" fill="black"/>
</svg>
