<svg width="209" height="60" viewBox="0 0 209 60" fill="none" xmlns="http://www.w3.org/2000/svg">
<path d="M201.259 60H7.74074C3.48527 60 0 56.6231 0 52.5V7.5C0 3.37688 3.48527 4.76837e-06 7.74074 4.76837e-06H201.259C205.515 4.76837e-06 209 3.37688 209 7.5V52.5C209 56.6231 205.515 60 201.259 60Z" fill="white"/>
<path d="M201.259 1.20188C204.843 1.20188 207.76 4.0275 207.76 7.5V52.5C207.76 55.9725 204.843 58.7981 201.259 58.7981H7.74074C4.15678 58.7981 1.24045 55.9725 1.24045 52.5V7.5C1.24045 4.0275 4.15678 1.20188 7.74074 1.20188H201.259ZM201.259 4.76837e-06H7.74074C3.48527 4.76837e-06 0 3.37688 0 7.5V52.5C0 56.6231 3.48527 60 7.74074 60H201.259C205.515 60 209 56.6231 209 52.5V7.5C209 3.37688 205.515 4.76837e-06 201.259 4.76837e-06Z" fill="#A6A6A6"/>
<path d="M16.155 11.3083C15.7002 11.7695 15.437 12.4877 15.437 13.4177V46.5902C15.437 47.5202 15.7002 48.2383 16.155 48.6995L16.2672 48.8008L35.4526 30.2195V29.7808L16.2672 11.1995L16.155 11.3083Z" fill="url(#paint0_linear_183_4108)"/>
<path d="M41.8407 36.4165L35.4526 30.2196V29.7809L41.8484 23.584L41.9916 23.6646L49.5659 27.8403C51.7275 29.0253 51.7275 30.9753 49.5659 32.1678L41.9916 36.3359L41.8407 36.4165V36.4165Z" fill="url(#paint1_linear_183_4108)"/>
<path d="M41.9914 36.3357L35.4524 30.0001L16.1548 48.6995C16.8727 49.4307 18.0435 49.5188 19.3749 48.7876L41.9914 36.3357" fill="url(#paint2_linear_183_4108)"/>
<path d="M41.9914 23.6644L19.3749 11.2125C18.0435 10.4888 16.8727 10.5769 16.1548 11.3081L35.4524 30L41.9914 23.6644Z" fill="url(#paint3_linear_183_4108)"/>
<path d="M73.4095 15.366C73.4095 16.6185 73.0225 17.6216 72.26 18.3697C71.3834 19.2566 70.2416 19.7028 68.8425 19.7028C67.5053 19.7028 66.3635 19.2491 65.4269 18.3547C64.4883 17.4472 64.02 16.3335 64.02 15.0003C64.02 13.6672 64.4883 12.5535 65.4269 11.6535C66.3635 10.7516 67.5053 10.2979 68.8425 10.2979C69.5082 10.2979 70.1429 10.431 70.7487 10.6785C71.3524 10.9279 71.844 11.2654 72.2 11.6816L71.3911 12.4729C70.7699 11.7622 69.9243 11.4116 68.8425 11.4116C67.8672 11.4116 67.0215 11.7416 66.3035 12.4072C65.5933 13.0747 65.2372 13.9391 65.2372 15.0003C65.2372 16.0616 65.5933 16.9335 66.3035 17.601C67.0215 18.2591 67.8672 18.5966 68.8425 18.5966C69.8778 18.5966 70.7487 18.2591 71.4357 17.5935C71.8885 17.1528 72.1459 16.5453 72.2136 15.7691H68.8425V14.6853H73.3399C73.3941 14.9197 73.4095 15.1466 73.4095 15.366V15.366Z" fill="black" stroke="black" stroke-width="0.16" stroke-miterlimit="10"/>
<path d="M80.5445 11.6083H76.32V14.4583H80.1284V15.542H76.32V18.392H80.5445V19.4964H75.124V10.5039H80.5445V11.6083Z" fill="black" stroke="black" stroke-width="0.16" stroke-miterlimit="10"/>
<path d="M85.5796 19.4964H84.3837V11.6083H81.7925V10.5039H88.1728V11.6083H85.5796V19.4964V19.4964Z" fill="black" stroke="black" stroke-width="0.16" stroke-miterlimit="10"/>
<path d="M92.7905 19.4964V10.5039H93.9845V19.4964H92.7905Z" fill="black" stroke="black" stroke-width="0.16" stroke-miterlimit="10"/>
<path d="M99.2769 19.4964H98.0906V11.6083H95.4897V10.5039H101.878V11.6083H99.2769V19.4964Z" fill="black" stroke="black" stroke-width="0.16" stroke-miterlimit="10"/>
<path d="M113.957 18.3397C113.042 19.2491 111.908 19.7028 110.555 19.7028C109.195 19.7028 108.061 19.2491 107.146 18.3397C106.232 17.4322 105.777 16.3185 105.777 15.0003C105.777 13.6822 106.232 12.5685 107.146 11.661C108.061 10.7516 109.195 10.2979 110.555 10.2979C111.9 10.2979 113.034 10.7516 113.95 11.6685C114.871 12.5835 115.326 13.6897 115.326 15.0003C115.326 16.3185 114.871 17.4322 113.957 18.3397ZM108.03 17.586C108.719 18.2591 109.557 18.5966 110.555 18.5966C111.546 18.5966 112.392 18.2591 113.073 17.586C113.76 16.9128 114.108 16.0485 114.108 15.0003C114.108 13.9522 113.76 13.0879 113.073 12.4147C112.392 11.7416 111.546 11.4041 110.555 11.4041C109.557 11.4041 108.719 11.7416 108.03 12.4147C107.343 13.0879 106.995 13.9522 106.995 15.0003C106.995 16.0485 107.343 16.9128 108.03 17.586V17.586Z" fill="black" stroke="black" stroke-width="0.16" stroke-miterlimit="10"/>
<path d="M117.003 19.4964V10.5039H118.455L122.968 17.4977H123.02L122.968 15.7689V10.5039H124.162V19.4964H122.915L118.19 12.1577H118.137L118.19 13.8939V19.4964H117.003V19.4964Z" fill="black" stroke="black" stroke-width="0.16" stroke-miterlimit="10"/>
<path d="M105.483 32.6287C101.847 32.6287 98.8765 35.31 98.8765 39.0093C98.8765 42.6787 101.847 45.3881 105.483 45.3881C109.127 45.3881 112.098 42.6787 112.098 39.0093C112.098 35.31 109.127 32.6287 105.483 32.6287ZM105.483 42.8756C103.488 42.8756 101.772 41.28 101.772 39.0093C101.772 36.7087 103.488 35.1412 105.483 35.1412C107.478 35.1412 109.203 36.7087 109.203 39.0093C109.203 41.28 107.478 42.8756 105.483 42.8756V42.8756ZM91.068 32.6287C87.424 32.6287 84.4613 35.31 84.4613 39.0093C84.4613 42.6787 87.424 45.3881 91.068 45.3881C94.71 45.3881 97.6747 42.6787 97.6747 39.0093C97.6747 35.31 94.71 32.6287 91.068 32.6287ZM91.068 42.8756C89.0709 42.8756 87.3486 41.28 87.3486 39.0093C87.3486 36.7087 89.0709 35.1412 91.068 35.1412C93.0632 35.1412 94.7797 36.7087 94.7797 39.0093C94.7797 41.28 93.0632 42.8756 91.068 42.8756ZM73.9145 34.5843V37.2956H80.5967C80.4013 38.8106 79.8788 39.9243 79.0776 40.7006C78.1023 41.6381 76.5831 42.6787 73.9145 42.6787C69.8023 42.6787 66.5821 39.4631 66.5821 35.4787C66.5821 31.4943 69.8023 28.2787 73.9145 28.2787C76.1381 28.2787 77.7559 29.1206 78.9499 30.2118L80.9218 28.3012C79.2518 26.7562 77.0302 25.5693 73.9145 25.5693C68.2754 25.5693 63.5361 30.015 63.5361 35.4787C63.5361 40.9425 68.2754 45.3881 73.9145 45.3881C76.9624 45.3881 79.2518 44.4206 81.0515 42.6056C82.8957 40.8187 83.4705 38.3062 83.4705 36.2775C83.4705 35.6475 83.4163 35.0681 83.3195 34.5843H73.9145ZM144.057 36.6862C143.513 35.2593 141.836 32.6287 138.418 32.6287C135.032 32.6287 132.212 35.2143 132.212 39.0093C132.212 42.5831 135.002 45.3881 138.743 45.3881C141.768 45.3881 143.513 43.6012 144.231 42.5606L141.987 41.1112C141.238 42.1725 140.218 42.8756 138.743 42.8756C137.278 42.8756 136.227 42.225 135.554 40.9425L144.361 37.4118L144.057 36.6862V36.6862ZM135.078 38.8106C135.002 36.3506 137.05 35.0906 138.517 35.0906C139.666 35.0906 140.642 35.6475 140.967 36.4443L135.078 38.8106V38.8106ZM127.92 45H130.815V26.25H127.92V45ZM123.179 34.05H123.082C122.432 33.3037 121.191 32.6287 119.62 32.6287C116.322 32.6287 113.307 35.4337 113.307 39.03C113.307 42.6056 116.322 45.3881 119.62 45.3881C121.191 45.3881 122.432 44.7075 123.082 43.9387H123.179V44.8537C123.179 47.2931 121.834 48.6037 119.664 48.6037C117.895 48.6037 116.798 47.3662 116.345 46.3256L113.828 47.3437C114.553 49.035 116.475 51.1162 119.664 51.1162C123.059 51.1162 125.923 49.1812 125.923 44.4731V33.0168H123.179V34.05V34.05ZM119.867 42.8756C117.872 42.8756 116.202 41.2575 116.202 39.03C116.202 36.7818 117.872 35.1412 119.867 35.1412C121.834 35.1412 123.384 36.7818 123.384 39.03C123.384 41.2575 121.834 42.8756 119.867 42.8756V42.8756ZM157.611 26.25H150.687V45H153.574V37.8956H157.611C160.818 37.8956 163.963 35.6475 163.963 32.0718C163.963 28.4981 160.81 26.25 157.611 26.25V26.25ZM157.687 35.2875H153.574V28.8581H157.687C159.843 28.8581 161.073 30.5925 161.073 32.0718C161.073 33.5231 159.843 35.2875 157.687 35.2875ZM175.535 32.5931C173.449 32.5931 171.279 33.4856 170.387 35.4637L172.95 36.5043C173.501 35.4637 174.515 35.1262 175.587 35.1262C177.085 35.1262 178.604 35.9981 178.627 37.5375V37.7343C178.105 37.4418 176.986 37.0087 175.61 37.0087C172.851 37.0087 170.039 38.4806 170.039 41.2275C170.039 43.74 172.299 45.3581 174.84 45.3581C176.783 45.3581 177.855 44.5087 178.529 43.5206H178.627V44.97H181.416V37.7775C181.416 34.4531 178.854 32.5931 175.535 32.5931ZM175.187 42.8681C174.242 42.8681 172.926 42.4143 172.926 41.28C172.926 39.8287 174.567 39.2718 175.988 39.2718C177.259 39.2718 177.855 39.5437 178.627 39.9018C178.401 41.6381 176.859 42.8681 175.187 42.8681V42.8681ZM191.576 33.0037L188.257 41.1318H188.158L184.727 33.0037H181.613L186.769 44.3625L183.827 50.6831H186.844L194.788 33.0037H191.576V33.0037ZM165.549 45H168.444V26.25H165.549V45Z" fill="black"/>
<defs>
<linearGradient id="paint0_linear_183_4108" x1="33.7492" y1="46.9356" x2="8.58815" y2="20.9669" gradientUnits="userSpaceOnUse">
<stop stop-color="#00A0FF"/>
<stop offset="0.0066" stop-color="#00A1FF"/>
<stop offset="0.2601" stop-color="#00BEFF"/>
<stop offset="0.5122" stop-color="#00D2FF"/>
<stop offset="0.7604" stop-color="#00DFFF"/>
<stop offset="1" stop-color="#00E3FF"/>
</linearGradient>
<linearGradient id="paint1_linear_183_4108" x1="52.3807" y1="29.9982" x2="14.9203" y2="29.9982" gradientUnits="userSpaceOnUse">
<stop stop-color="#FFE000"/>
<stop offset="0.4087" stop-color="#FFBD00"/>
<stop offset="0.7754" stop-color="#FFA500"/>
<stop offset="1" stop-color="#FF9C00"/>
</linearGradient>
<linearGradient id="paint2_linear_183_4108" x1="38.4357" y1="26.5559" x2="4.31531" y2="-8.6597" gradientUnits="userSpaceOnUse">
<stop stop-color="#FF3A44"/>
<stop offset="1" stop-color="#C31162"/>
</linearGradient>
<linearGradient id="paint3_linear_183_4108" x1="11.2972" y1="59.7357" x2="26.5335" y2="44.0105" gradientUnits="userSpaceOnUse">
<stop stop-color="#32A071"/>
<stop offset="0.0685" stop-color="#2DA771"/>
<stop offset="0.4762" stop-color="#15CF74"/>
<stop offset="0.8009" stop-color="#06E775"/>
<stop offset="1" stop-color="#00F076"/>
</linearGradient>
</defs>
</svg>
