<svg width="28" height="38" viewBox="0 0 28 38" fill="none" xmlns="http://www.w3.org/2000/svg">
<path d="M14.1979 23.8246C17.4936 23.8246 20.1541 21.1642 20.1541 17.8685V5.95616C20.1541 2.66042 17.4936 0 14.1979 0C10.9022 0 8.24175 2.66042 8.24175 5.95616V17.8685C8.24175 21.1642 10.9022 23.8246 14.1979 23.8246ZM25.9315 17.8685C24.9587 17.8685 24.1447 18.5832 23.9859 19.5561C23.1719 24.2217 19.1018 27.7954 14.1979 27.7954C9.294 27.7954 5.22396 24.2217 4.40995 19.5561C4.25112 18.5832 3.43711 17.8685 2.46427 17.8685C1.25319 17.8685 0.300201 18.9406 0.478886 20.1318C1.45173 26.088 6.21665 30.7536 12.2125 31.6074V35.737C12.2125 36.8289 13.1059 37.7223 14.1979 37.7223C15.2899 37.7223 16.1833 36.8289 16.1833 35.737V31.6074C22.1792 30.7536 26.9441 26.088 27.9169 20.1318C28.1155 18.9406 27.1426 17.8685 25.9315 17.8685Z" fill="#44584D"/>
</svg>
