<svg width="41" height="43" viewBox="0 0 41 43" fill="none" xmlns="http://www.w3.org/2000/svg">
<path d="M21.968 28.9302C22.5168 28.3553 23.0394 27.7934 23.5621 27.2446C24.2546 26.5129 24.9472 25.7681 25.6397 25.0364C27.1685 23.4292 29.3114 23.2593 31.0624 24.6182C33.2837 26.3561 35.492 28.107 37.7002 29.858C38.2752 30.3153 38.3405 30.5636 38.0008 31.2038C34.8256 37.3321 29.8472 41.043 23.0002 41.9838C14.0757 43.2121 5.58239 38.1553 2.23733 29.8449C2.0152 29.283 2.08053 28.878 2.51173 28.4468C4.65466 26.343 6.75839 24.2132 8.88826 22.0964C10.6784 20.3063 12.9651 20.2801 14.7944 22.031C17.0418 24.187 19.2762 26.3561 21.5237 28.5121C21.6674 28.6428 21.7981 28.7734 21.968 28.9302ZM29.416 38.2076C29.2592 38.09 29.1677 38.0377 29.0762 37.9593C23.928 32.994 18.7666 28.0417 13.6184 23.0764C12.5339 22.031 11.1749 22.0441 10.1035 23.1025C8.19572 24.9972 6.30106 26.9049 4.39333 28.7996C3.75306 29.4398 3.75306 29.4398 4.13199 30.25C7.55546 37.4236 15.0296 41.4612 22.961 40.4158C25.2216 40.1414 27.3253 39.3966 29.416 38.2076ZM23.1048 30.0148C25.6789 32.4844 28.2008 34.9148 30.7488 37.3582C33.1792 35.6465 35.0608 33.5036 36.4458 30.838C34.1984 29.087 32.0032 27.323 29.7557 25.6244C28.9456 25.0102 27.7565 25.1409 27.0509 25.8596C25.7181 27.2054 24.4376 28.6036 23.1048 30.0148Z" fill="#44584D" stroke="#44584D"/>
<path d="M35.2306 8.80758C35.1653 12.7145 33.741 15.8505 31.4021 18.6337C30.3045 19.9534 29.0501 21.1033 27.6389 22.0964C27.26 22.3577 26.9072 22.423 26.5152 22.1356C22.9349 19.5353 20.2693 16.2948 19.224 11.9044C18.7144 9.77451 18.649 7.64465 19.5506 5.58011C20.9749 2.33959 24.4898 0.288121 27.8872 0.732387C31.7288 1.22892 34.5904 3.95985 35.1261 7.65771C35.1914 8.11505 35.2176 8.57238 35.2306 8.80758ZM27.1293 20.6982C28.2008 19.6137 29.2853 18.6468 30.2261 17.5492C32.3429 15.0665 33.6626 12.218 33.6626 8.88598C33.6626 5.21425 30.7096 2.26119 27.0509 2.26119C23.4053 2.26119 20.4 5.24038 20.4653 8.91211C20.5306 13.9689 23.2877 17.5492 27.1293 20.6982Z" fill="#44584D" stroke="#44584D"/>
<path d="M0.800049 22.606C0.878449 13.3418 7.30724 5.38416 16.3494 3.47643C16.5846 3.42416 16.8328 3.3719 17.068 3.34576C17.6038 3.28043 17.9696 3.5287 18.048 3.9991C18.1134 4.41723 17.8259 4.77003 17.3294 4.90069C16.3886 5.13589 15.4086 5.29269 14.4939 5.63243C7.80377 8.16736 3.81845 12.9628 2.61631 20.0188C2.30271 21.8351 2.38111 23.6513 2.64245 25.4676C2.72085 25.9903 2.51178 26.33 2.11978 26.4345C1.63631 26.5652 1.20511 26.3039 1.13978 25.7681C0.996048 24.7097 0.904582 23.6644 0.800049 22.606Z" fill="#44584D" stroke="#44584D"/>
<path d="M13.3963 10.8721C15.5392 10.8721 17.3032 12.623 17.3032 14.7529C17.3163 16.935 15.5523 18.7121 13.3571 18.699C11.2272 18.6859 9.47632 16.935 9.47632 14.7921C9.47632 12.6361 11.2272 10.8851 13.3963 10.8721ZM15.7352 14.779C15.7352 13.5115 14.6768 12.4401 13.4094 12.4401C12.1027 12.4401 11.0443 13.4985 11.0443 14.7921C11.0443 16.0726 12.1027 17.1179 13.3832 17.131C14.6768 17.1441 15.7352 16.0857 15.7352 14.779Z" fill="#44584D" stroke="#44584D"/>
<path d="M40 22.4621C40 24.1608 39.8171 25.7418 39.4251 27.2968C39.2814 27.8586 38.9155 28.1069 38.4451 28.0024C38.0139 27.8978 37.7918 27.4928 37.9094 26.957C38.9547 22.5013 38.432 18.2285 36.3283 14.1648C36.0539 13.6421 36.1584 13.1979 36.5766 12.9757C37.0078 12.7405 37.439 12.9235 37.7264 13.4592C39.2291 16.3077 39.9739 19.3392 40 22.4621Z" fill="#44584D" stroke="#44584D"/>
<path d="M30.9972 8.37626C30.9841 10.5584 29.2071 12.3093 27.0249 12.3093C24.8559 12.2963 23.0788 10.5061 23.0919 8.33706C23.1049 6.168 24.882 4.404 27.0772 4.41706C29.2593 4.41706 31.0233 6.19413 30.9972 8.37626ZM27.0641 5.97199C25.7444 5.97199 24.6599 7.03039 24.6599 8.33706C24.6599 9.64372 25.7444 10.7283 27.0511 10.7152C28.3839 10.7021 29.4292 9.64372 29.4292 8.32399C29.4292 7.04346 28.3708 5.98506 27.0641 5.97199Z" fill="#44584D" stroke="#44584D"/>
</svg>
