<svg width="40" height="41" viewBox="0 0 40 41" fill="none" xmlns="http://www.w3.org/2000/svg">
<g id="Oferty">
<path id="Vector" d="M13.969 18.2837C15.4966 18.2837 16.7349 17.0454 16.7349 15.5178C16.7349 13.9903 15.4966 12.752 13.969 12.752C12.4415 12.752 11.2031 13.9903 11.2031 15.5178C11.2031 17.0454 12.4415 18.2837 13.969 18.2837Z" stroke="#323131" stroke-width="2" stroke-miterlimit="1.5" stroke-linecap="square" stroke-linejoin="round"/>
<path id="Vector_2" d="M25.6419 28.2017C27.1694 28.2017 28.4078 26.9633 28.4078 25.4358C28.4078 23.9082 27.1694 22.6699 25.6419 22.6699C24.1143 22.6699 22.876 23.9082 22.876 25.4358C22.876 26.9633 24.1143 28.2017 25.6419 28.2017Z" stroke="#825526" stroke-width="2" stroke-miterlimit="1.5" stroke-linecap="square" stroke-linejoin="round"/>
<path id="Vector_3" d="M12.8341 27.619L26.6875 13.7656" stroke="#323131" stroke-width="2" stroke-miterlimit="1.5" stroke-linecap="round" stroke-linejoin="round"/>
<path id="Vector_4" fill-rule="evenodd" clip-rule="evenodd" d="M19.7227 2L24.8556 5.00289L30.7632 5.56552L33.0844 10.9875L37.5141 14.9046L36.2491 20.6783L37.5141 26.452L33.0844 30.369L30.7632 35.7841L24.8556 36.3537L19.7227 39.3566L14.6585 36.3537L8.75092 35.7841L6.43102 30.369L2 26.452L3.2664 20.6783L2 14.9046L6.43102 10.9875L8.75092 5.56552L14.6585 5.00289L19.7227 2Z" stroke="#323131" stroke-width="2" stroke-miterlimit="1.5" stroke-linecap="round" stroke-linejoin="round"/>
</g>
</svg>
