<svg xmlns="http://www.w3.org/2000/svg" width="187" height="24" viewBox="0 0 187 24" fill="none">
    <path d="M13.8201 6.946L14.7164 6.50264L13.8201 6.946C14.0997 7.5113 14.6296 7.9116 15.2498 8.02606L20.2481 8.94856L16.6387 12.9099C16.2404 13.3471 16.056 13.9381 16.135 14.5242L16.8629 19.9236L12.429 17.598C11.8472 17.2929 11.1528 17.2929 10.571 17.598L11.0355 18.4836L10.571 17.598L6.13707 19.9236L6.86502 14.5242C6.94404 13.9381 6.75962 13.3471 6.36132 12.9099L2.75188 8.94856L7.75024 8.02606C8.37044 7.9116 8.90032 7.5113 9.17994 6.946L11.5 2.2555L13.8201 6.946Z" fill="#825526" stroke="#825526" stroke-width="2"/>
    <path d="M52.25 2.14298L54.8039 6.98349C55.0933 7.53198 55.6207 7.91519 56.2318 8.02092L61.6246 8.95401L57.8102 12.8787C57.378 13.3234 57.1765 13.9435 57.2648 14.5573L58.0438 19.9745L53.1325 17.5596C52.576 17.2859 51.924 17.2859 51.3675 17.5596L46.4562 19.9745L47.2352 14.5573C47.3235 13.9435 47.122 13.3234 46.6898 12.8787L42.8754 8.95401L48.2682 8.02092C48.8793 7.91519 49.4067 7.53198 49.6961 6.98349L52.25 2.14298Z" fill="#825526" stroke="#825526" stroke-width="2"/>
    <path d="M94.25 2.14298L96.8039 6.98349C97.0933 7.53198 97.6207 7.91519 98.2318 8.02092L103.625 8.95401L99.8102 12.8787C99.378 13.3234 99.1765 13.9435 99.2648 14.5573L100.044 19.9745L95.1325 17.5596C94.576 17.2859 93.924 17.2859 93.3675 17.5596L88.4562 19.9745L89.2352 14.5573C89.3235 13.9435 89.122 13.3234 88.6898 12.8787L84.8754 8.95401L90.2682 8.02092C90.8793 7.91519 91.4067 7.53198 91.6961 6.98349L94.25 2.14298Z" fill="#825526" stroke="#825526" stroke-width="2"/>
    <path d="M137.82 6.946L138.716 6.50264L137.82 6.946C138.1 7.5113 138.63 7.9116 139.25 8.02606L144.248 8.94856L140.639 12.9099C140.24 13.3471 140.056 13.9381 140.135 14.5242L140.863 19.9236L136.429 17.598C135.847 17.2929 135.153 17.2929 134.571 17.598L135.036 18.4836L134.571 17.598L130.137 19.9236L130.865 14.5242C130.944 13.9381 130.76 13.3471 130.361 12.9099L126.752 8.94856L131.75 8.02606C132.37 7.9116 132.9 7.5113 133.18 6.946L135.5 2.2555L137.82 6.946Z" fill="#825526" stroke="#825526" stroke-width="2"/>
    <path d="M177.82 6.946L178.716 6.50264L177.82 6.946C178.1 7.5113 178.63 7.9116 179.25 8.02606L184.248 8.94856L180.639 12.9099C180.24 13.3471 180.056 13.9381 180.135 14.5242L180.863 19.9236L176.429 17.598C175.847 17.2929 175.153 17.2929 174.571 17.598L175.036 18.4836L174.571 17.598L170.137 19.9236L170.865 14.5242C170.944 13.9381 170.76 13.3471 170.361 12.9099L166.752 8.94856L171.75 8.02606C172.37 7.9116 172.9 7.5113 173.18 6.946L175.5 2.2555L177.82 6.946Z" fill="#825526" stroke="#825526" stroke-width="2"/>
</svg>