<svg xmlns="http://www.w3.org/2000/svg" width="40" height="40" viewBox="0 0 40 40" fill="none">
    <path d="M29.2566 32.7676C30.7068 32.7676 31.8824 31.5981 31.8824 30.1553C31.8824 28.7126 30.7068 27.543 29.2566 27.543C27.8065 27.543 26.6309 28.7126 26.6309 30.1553C26.6309 31.5981 27.8065 32.7676 29.2566 32.7676Z" stroke="#323131" stroke-width="2" stroke-miterlimit="1.5" stroke-linecap="square" stroke-linejoin="round"/>
    <path fill-rule="evenodd" clip-rule="evenodd" d="M35.9241 10.6583C35.9241 8.99489 34.5272 7.64551 32.877 7.64551H6.09209C4.37834 7.64551 3.04492 8.99489 3.04492 10.6583V34.743C3.04492 36.4064 4.37834 37.7557 6.09209 37.7557H32.877C34.5272 37.7557 35.9241 36.4064 35.9241 34.743V10.6583Z" stroke="#825526" stroke-width="2" stroke-miterlimit="1.5" stroke-linecap="round" stroke-linejoin="round"/>
    <path fill-rule="evenodd" clip-rule="evenodd" d="M12.1427 7.64355C12.4818 7.64355 12.7568 7.36171 12.7568 7.02875V1.62457C12.7568 1.2788 12.4818 1.00977 12.1427 1.00977L7.23336 1.00977C6.89429 1.00977 6.61925 1.2788 6.61925 1.62457V7.02875C6.61925 7.36171 6.89429 7.64355 7.23336 7.64355H12.1427Z" stroke="#825526" stroke-width="2" stroke-miterlimit="1.5" stroke-linecap="round" stroke-linejoin="round"/>
    <path fill-rule="evenodd" clip-rule="evenodd" d="M31.673 7.64355C32.0121 7.64355 32.2871 7.36171 32.2871 7.02875V1.62457C32.2871 1.2788 32.0121 1.00977 31.673 1.00977L26.7636 1.00977C26.4246 1.00977 26.1495 1.2788 26.1495 1.62457V7.02875C26.1495 7.36171 26.4246 7.64355 26.7636 7.64355H31.673Z" stroke="#825526" stroke-width="2" stroke-miterlimit="1.5" stroke-linecap="round" stroke-linejoin="round"/>
    <path d="M2.99023 15.874H35.9194" stroke="#825526" stroke-width="2" stroke-miterlimit="1.5" stroke-linecap="round" stroke-linejoin="round"/>
    <path fill-rule="evenodd" clip-rule="evenodd" d="M19.4426 20.1035L21.7306 23.9415C21.7306 23.9487 21.7306 23.9523 21.7306 23.9596C21.767 23.9632 21.7675 23.9668 21.7675 23.9668L26.1265 24.9389L23.1836 28.2854C23.1836 28.289 23.1836 28.2963 23.1836 28.3035C23.1473 28.3071 23.1474 28.3143 23.1474 28.3216L23.5838 32.7631L19.4788 30.9922C19.4788 30.9886 19.4426 30.985 19.4426 30.985C19.4426 30.985 19.4426 30.9886 19.4426 30.9922L15.3015 32.7631L15.7371 28.3216C15.7371 28.3143 15.7371 28.3071 15.7371 28.3035C15.7371 28.2963 15.7371 28.289 15.7371 28.2854L12.7588 24.9389L17.1539 23.9668C17.1539 23.9668 17.1539 23.9632 17.1539 23.9596C17.1539 23.9523 17.1539 23.9487 17.1539 23.9415L19.4426 20.1035Z" stroke="#825526" stroke-width="2" stroke-miterlimit="1.5" stroke-linecap="round" stroke-linejoin="round"/>
</svg>