<svg width="210" height="60" viewBox="0 0 210 60" fill="none" xmlns="http://www.w3.org/2000/svg">
<rect width="210" height="60" fill="white"/>
<path d="M46.8388 28.3505C46.794 23.516 50.9244 21.164 51.1133 21.0545C48.774 17.75 45.1483 17.2985 43.8741 17.2625C40.8289 16.952 37.8751 19.028 36.3238 19.028C34.7416 19.028 32.3528 17.2925 29.7783 17.3435C26.4652 17.393 23.3658 19.2515 21.666 22.1375C18.1579 28.022 20.7742 36.6695 24.1353 41.426C25.8165 43.7555 27.7811 46.3565 30.3526 46.265C32.8684 46.1645 33.8081 44.711 36.844 44.711C39.8521 44.711 40.7345 46.265 43.3571 46.2065C46.057 46.1645 47.7569 43.8665 49.3794 41.516C51.3223 38.846 52.1026 36.2165 52.1335 36.0815C52.07 36.0605 46.8899 34.145 46.8388 28.3505Z" fill="black"/>
<path d="M41.8848 14.1335C43.2379 12.494 44.1636 10.2635 43.9067 8C41.9482 8.084 39.4991 9.3125 38.0887 10.916C36.8409 12.329 35.7262 14.645 36.0142 16.823C38.2141 16.982 40.4729 15.7475 41.8848 14.1335Z" fill="black"/>
<path d="M76.1332 13.6883C76.1332 15.4538 75.5867 16.7828 74.4953 17.6753C73.4844 18.4988 72.0477 18.9113 70.1868 18.9113C69.2641 18.9113 68.4745 18.8723 67.8135 18.7943V9.14785C68.6758 9.01285 69.6047 8.94385 70.6079 8.94385C72.3805 8.94385 73.7166 9.31735 74.6176 10.0643C75.627 10.9088 76.1332 12.1163 76.1332 13.6883ZM74.4225 13.7318C74.4225 12.5873 74.1098 11.7098 73.4844 11.0978C72.8589 10.4873 71.9455 10.1813 70.7426 10.1813C70.2317 10.1813 69.7967 10.2143 69.4359 10.2833V17.6168C69.6356 17.6468 70.001 17.6603 70.532 17.6603C71.7736 17.6603 72.732 17.3258 73.4069 16.6568C74.0819 15.9878 74.4225 15.0128 74.4225 13.7318Z" fill="black"/>
<path d="M85.204 15.2304C85.204 16.3179 84.8835 17.2089 84.2426 17.9079C83.5707 18.6264 82.6805 18.9849 81.5689 18.9849C80.4976 18.9849 79.6446 18.6414 79.0083 17.9514C78.3735 17.2629 78.0562 16.3944 78.0562 15.3474C78.0562 14.2524 78.3828 13.3539 79.0392 12.6564C79.6956 11.9589 80.5781 11.6094 81.6897 11.6094C82.761 11.6094 83.6218 11.9529 84.2735 12.6414C84.8928 13.3104 85.204 14.1744 85.204 15.2304ZM83.5211 15.2814C83.5211 14.6289 83.3756 14.0694 83.0861 13.6029C82.7455 13.0389 82.2609 12.7569 81.6308 12.7569C80.9791 12.7569 80.4837 13.0389 80.1431 13.6029C79.852 14.0694 79.708 14.6379 79.708 15.3099C79.708 15.9624 79.8536 16.5219 80.1431 16.9884C80.4945 17.5524 80.9837 17.8344 81.6154 17.8344C82.2346 17.8344 82.7207 17.5479 83.0706 16.9734C83.371 16.4979 83.5211 15.9339 83.5211 15.2814Z" fill="black"/>
<path d="M97.3658 11.7534L95.0823 18.8244H93.5961L92.6502 15.7539C92.4102 14.9874 92.2152 14.2254 92.0634 13.4694H92.034C91.8931 14.2464 91.6981 15.0069 91.4473 15.7539L90.4425 18.8244H88.9393L86.792 11.7534H88.4593L89.2845 15.1149C89.4842 15.9099 89.6483 16.6674 89.7799 17.3844H89.8093C89.9301 16.7934 90.1298 16.0404 90.4116 15.1299L91.4473 11.7549H92.7694L93.7618 15.0579C94.0017 15.8634 94.1968 16.6389 94.3469 17.3859H94.3918C94.5018 16.6584 94.6674 15.8829 94.8873 15.0579L95.7728 11.7549H97.3658V11.7534Z" fill="black"/>
<path d="M105.777 18.8245H104.155V14.7745C104.155 13.5265 103.666 12.9025 102.684 12.9025C102.203 12.9025 101.814 13.0735 101.512 13.417C101.213 13.7605 101.062 14.1655 101.062 14.629V18.823H99.4392V13.774C99.4392 13.153 99.4191 12.4795 99.3804 11.7505H100.806L100.882 12.856H100.927C101.116 12.5125 101.398 12.229 101.768 12.0025C102.207 11.7385 102.7 11.605 103.238 11.605C103.92 11.605 104.486 11.818 104.937 12.2455C105.497 12.769 105.777 13.5505 105.777 14.5885V18.8245V18.8245Z" fill="black"/>
<path d="M110.251 18.8243H108.63V8.50879H110.251V18.8243Z" fill="black"/>
<path d="M119.804 15.2304C119.804 16.3179 119.483 17.2089 118.842 17.9079C118.17 18.6264 117.279 18.9849 116.169 18.9849C115.096 18.9849 114.243 18.6414 113.608 17.9514C112.973 17.2629 112.656 16.3944 112.656 15.3474C112.656 14.2524 112.982 13.3539 113.639 12.6564C114.295 11.9589 115.178 11.6094 116.288 11.6094C117.361 11.6094 118.22 11.9529 118.873 12.6414C119.492 13.3104 119.804 14.1744 119.804 15.2304ZM118.119 15.2814C118.119 14.6289 117.974 14.0694 117.684 13.6029C117.345 13.0389 116.859 12.7569 116.23 12.7569C115.577 12.7569 115.082 13.0389 114.743 13.6029C114.452 14.0694 114.308 14.6379 114.308 15.3099C114.308 15.9624 114.453 16.5219 114.743 16.9884C115.094 17.5524 115.583 17.8344 116.215 17.8344C116.834 17.8344 117.319 17.5479 117.669 16.9734C117.971 16.4979 118.119 15.9339 118.119 15.2814Z" fill="black"/>
<path d="M127.655 18.8244H126.199L126.078 18.0099H126.033C125.534 18.6594 124.824 18.9849 123.901 18.9849C123.212 18.9849 122.655 18.7704 122.235 18.3444C121.854 17.9574 121.664 17.4759 121.664 16.9044C121.664 16.0404 122.036 15.3819 122.783 14.9259C123.53 14.4699 124.579 14.2464 125.931 14.2569V14.1249C125.931 13.1934 125.426 12.7284 124.415 12.7284C123.695 12.7284 123.06 12.9039 122.512 13.2519L122.183 12.2199C122.861 11.8134 123.698 11.6094 124.686 11.6094C126.593 11.6094 127.55 12.5844 127.55 14.5344V17.1384C127.55 17.8449 127.586 18.4074 127.655 18.8244ZM125.971 16.3944V15.3039C124.181 15.2739 123.287 15.7494 123.287 16.7289C123.287 17.0979 123.389 17.3739 123.598 17.5584C123.807 17.7429 124.073 17.8344 124.39 17.8344C124.746 17.8344 125.079 17.7249 125.383 17.5074C125.688 17.2884 125.875 17.0109 125.945 16.6704C125.962 16.5939 125.971 16.5009 125.971 16.3944Z" fill="black"/>
<path d="M136.875 18.8243H135.435L135.359 17.6888H135.314C134.855 18.5528 134.071 18.9848 132.97 18.9848C132.091 18.9848 131.359 18.6503 130.778 17.9813C130.198 17.3123 129.908 16.4438 129.908 15.3773C129.908 14.2328 130.222 13.3058 130.854 12.5978C131.466 11.9378 132.215 11.6078 133.107 11.6078C134.087 11.6078 134.772 11.9273 135.163 12.5678H135.194V8.50879H136.818V16.9193C136.818 17.6078 136.836 18.2423 136.875 18.8243ZM135.194 15.8423V14.6633C135.194 14.4593 135.178 14.2943 135.149 14.1683C135.057 13.7903 134.861 13.4723 134.562 13.2158C134.26 12.9593 133.896 12.8303 133.477 12.8303C132.871 12.8303 132.398 13.0628 132.049 13.5293C131.704 13.9958 131.529 14.5913 131.529 15.3188C131.529 16.0178 131.695 16.5848 132.028 17.0213C132.379 17.4863 132.853 17.7188 133.446 17.7188C133.978 17.7188 134.404 17.5253 134.728 17.1368C135.04 16.7783 135.194 16.3463 135.194 15.8423Z" fill="black"/>
<path d="M150.751 15.2304C150.751 16.3179 150.43 17.2089 149.789 17.9079C149.118 18.6264 148.229 18.9849 147.116 18.9849C146.046 18.9849 145.193 18.6414 144.555 17.9514C143.92 17.2629 143.603 16.3944 143.603 15.3474C143.603 14.2524 143.93 13.3539 144.586 12.6564C145.243 11.9589 146.125 11.6094 147.238 11.6094C148.308 11.6094 149.17 11.9529 149.82 12.6414C150.44 13.3104 150.751 14.1744 150.751 15.2304ZM149.07 15.2814C149.07 14.6289 148.924 14.0694 148.635 13.6029C148.292 13.0389 147.809 12.7569 147.178 12.7569C146.527 12.7569 146.032 13.0389 145.69 13.6029C145.399 14.0694 145.255 14.6379 145.255 15.3099C145.255 15.9624 145.4 16.5219 145.69 16.9884C146.041 17.5524 146.531 17.8344 147.162 17.8344C147.781 17.8344 148.269 17.5479 148.619 16.9734C148.918 16.4979 149.07 15.9339 149.07 15.2814Z" fill="black"/>
<path d="M159.475 18.8245H157.854V14.7745C157.854 13.5265 157.364 12.9025 156.381 12.9025C155.9 12.9025 155.511 13.0735 155.211 13.417C154.911 13.7605 154.76 14.1655 154.76 14.629V18.823H153.136V13.774C153.136 13.153 153.118 12.4795 153.079 11.7505H154.503L154.579 12.856H154.624C154.815 12.5125 155.096 12.229 155.465 12.0025C155.906 11.7385 156.397 11.605 156.937 11.605C157.617 11.605 158.183 11.818 158.634 12.2455C159.196 12.769 159.475 13.5505 159.475 14.5885V18.8245V18.8245Z" fill="black"/>
<path d="M170.394 12.9307H168.607V16.3657C168.607 17.2387 168.925 17.6752 169.553 17.6752C169.844 17.6752 170.086 17.6512 170.276 17.6017L170.318 18.7942C169.998 18.9112 169.577 18.9697 169.058 18.9697C168.417 18.9697 167.918 18.7807 167.558 18.4027C167.195 18.0247 167.016 17.3887 167.016 16.4962V12.9307H165.949V11.7532H167.016V10.4572L168.606 9.99219V11.7517H170.392V12.9307H170.394Z" fill="black"/>
<path d="M178.983 18.8243H177.359V14.8043C177.359 13.5368 176.87 12.9023 175.89 12.9023C175.138 12.9023 174.624 13.2698 174.342 14.0048C174.294 14.1593 174.266 14.3483 174.266 14.5703V18.8228H172.645V8.50879H174.266V12.7703H174.297C174.808 11.9948 175.54 11.6078 176.489 11.6078C177.161 11.6078 177.717 11.8208 178.158 12.2483C178.708 12.7808 178.983 13.5728 178.983 14.6198V18.8243V18.8243Z" fill="black"/>
<path d="M187.843 14.9542C187.843 15.2362 187.821 15.4732 187.782 15.6667H182.917C182.938 16.3657 183.17 16.8982 183.621 17.2672C184.033 17.5972 184.564 17.7622 185.214 17.7622C185.934 17.7622 186.59 17.6512 187.182 17.4277L187.436 18.5197C186.744 18.8107 185.929 18.9562 184.986 18.9562C183.856 18.9562 182.966 18.6337 182.322 17.9887C181.675 17.3437 181.354 16.4782 181.354 15.3922C181.354 14.3257 181.653 13.4377 182.256 12.7297C182.884 11.9737 183.734 11.5957 184.807 11.5957C185.857 11.5957 186.654 11.9737 187.193 12.7297C187.628 13.3297 187.843 14.0722 187.843 14.9542ZM186.295 14.5477C186.307 14.0812 186.2 13.6792 185.98 13.3402C185.699 12.9037 185.27 12.6847 184.689 12.6847C184.16 12.6847 183.728 12.8977 183.398 13.3252C183.129 13.6657 182.969 14.0722 182.917 14.5477H186.295Z" fill="black"/>
<path d="M83.247 45.9307H79.7311L77.8052 40.0672H71.111L69.2765 45.9307H65.8535L72.4858 25.9688H76.5822L83.247 45.9307ZM77.2247 37.6073L75.483 32.3948C75.2988 31.8623 74.9535 30.6083 74.4442 28.6343H74.3823C74.1795 29.4833 73.8528 30.7373 73.4038 32.3948L71.6931 37.6073H77.2247V37.6073Z" fill="black"/>
<path d="M100.303 38.5567C100.303 41.0047 99.6203 42.9397 98.2548 44.3602C97.0318 45.6247 95.513 46.2562 93.7002 46.2562C91.7433 46.2562 90.3376 45.5752 89.4815 44.2132H89.4195V51.7957H86.1189V36.2752C86.1189 34.7362 86.0771 33.1567 85.9966 31.5367H88.8994L89.0836 33.8182H89.1455C90.2462 32.0992 91.9167 31.2412 94.1584 31.2412C95.9109 31.2412 97.3739 31.9117 98.5443 33.2542C99.7178 34.5982 100.303 36.3652 100.303 38.5567ZM96.9404 38.6737C96.9404 37.2727 96.6153 36.1177 95.962 35.2087C95.2483 34.2607 94.29 33.7867 93.0886 33.7867C92.2743 33.7867 91.5343 34.0507 90.8732 34.5712C90.2106 35.0962 89.7772 35.7817 89.5743 36.6307C89.4722 37.0267 89.4211 37.3507 89.4211 37.6057V40.0057C89.4211 41.0527 89.7524 41.9362 90.415 42.6577C91.0776 43.3792 91.9384 43.7392 92.9973 43.7392C94.2405 43.7392 95.2081 43.2742 95.9001 42.3472C96.5937 41.4187 96.9404 40.1947 96.9404 38.6737Z" fill="black"/>
<path d="M117.39 38.5567C117.39 41.0047 116.707 42.9397 115.34 44.3602C114.119 45.6247 112.6 46.2562 110.787 46.2562C108.83 46.2562 107.424 45.5752 106.57 44.2132H106.508V51.7957H103.207V36.2752C103.207 34.7362 103.165 33.1567 103.085 31.5367H105.988L106.172 33.8182H106.234C107.333 32.0992 109.004 31.2412 111.247 31.2412C112.998 31.2412 114.461 31.9117 115.634 33.2542C116.803 34.5982 117.39 36.3652 117.39 38.5567ZM114.027 38.6737C114.027 37.2727 113.701 36.1177 113.047 35.2087C112.334 34.2607 111.378 33.7867 110.175 33.7867C109.36 33.7867 108.621 34.0507 107.959 34.5712C107.296 35.0962 106.864 35.7817 106.661 36.6307C106.561 37.0267 106.508 37.3507 106.508 37.6057V40.0057C106.508 41.0527 106.839 41.9362 107.499 42.6577C108.161 43.3777 109.022 43.7392 110.084 43.7392C111.327 43.7392 112.295 43.2742 112.987 42.3472C113.68 41.4187 114.027 40.1947 114.027 38.6737Z" fill="black"/>
<path d="M136.494 40.3328C136.494 42.0308 135.885 43.4123 134.664 44.4788C133.322 45.6443 131.453 46.2263 129.052 46.2263C126.835 46.2263 125.058 45.8123 123.712 44.9828L124.477 42.3173C125.926 43.1663 127.516 43.5923 129.249 43.5923C130.492 43.5923 131.459 43.3193 132.154 42.7763C132.846 42.2333 133.192 41.5043 133.192 40.5953C133.192 39.7853 132.907 39.1028 132.336 38.5493C131.767 37.9958 130.818 37.4813 129.493 37.0058C125.886 35.7023 124.084 33.7928 124.084 31.2818C124.084 29.6408 124.716 28.2953 125.98 27.2483C127.241 26.1998 128.922 25.6763 131.024 25.6763C132.899 25.6763 134.457 25.9928 135.7 26.6243L134.875 29.2313C133.713 28.6193 132.401 28.3133 130.931 28.3133C129.77 28.3133 128.863 28.5908 128.213 29.1428C127.663 29.6363 127.388 30.2378 127.388 30.9503C127.388 31.7393 127.702 32.3918 128.334 32.9048C128.883 33.3788 129.882 33.8918 131.331 34.4453C133.103 35.1368 134.405 35.9453 135.243 36.8723C136.077 37.7963 136.494 38.9528 136.494 40.3328Z" fill="black"/>
<path d="M147.407 33.9367H143.769V40.9252C143.769 42.7027 144.41 43.5907 145.695 43.5907C146.284 43.5907 146.774 43.5412 147.161 43.4422L147.252 45.8707C146.602 46.1062 145.746 46.2247 144.685 46.2247C143.382 46.2247 142.363 45.8392 141.628 45.0697C140.895 44.2987 140.527 43.0057 140.527 41.1892V33.9337H138.359V31.5337H140.527V28.8982L143.769 27.9502V31.5337H147.407V33.9367Z" fill="black"/>
<path d="M163.822 38.6152C163.822 40.8277 163.169 42.6442 161.865 44.0647C160.498 45.5272 158.684 46.2562 156.422 46.2562C154.242 46.2562 152.507 45.5557 151.212 44.1547C149.918 42.7537 149.271 40.9852 149.271 38.8537C149.271 36.6232 149.937 34.7962 151.273 33.3757C152.606 31.9537 154.405 31.2427 156.666 31.2427C158.846 31.2427 160.6 31.9432 161.924 33.3457C163.19 34.7062 163.822 36.4627 163.822 38.6152ZM160.398 38.7187C160.398 37.3912 160.105 36.2527 159.512 35.3032C158.82 34.1542 157.831 33.5812 156.549 33.5812C155.222 33.5812 154.214 34.1557 153.522 35.3032C152.929 36.2542 152.637 37.4107 152.637 38.7787C152.637 40.1062 152.929 41.2447 153.522 42.1927C154.236 43.3417 155.233 43.9147 156.519 43.9147C157.78 43.9147 158.769 43.3297 159.483 42.1627C160.091 41.1952 160.398 40.0447 160.398 38.7187Z" fill="black"/>
<path d="M174.551 34.3492C174.224 34.2907 173.876 34.2607 173.51 34.2607C172.349 34.2607 171.451 34.6852 170.82 35.5357C170.27 36.2857 169.995 37.2337 169.995 38.3782V45.9307H166.695L166.726 36.0697C166.726 34.4107 166.685 32.9002 166.603 31.5382H169.477L169.598 34.2922H169.69C170.038 33.3457 170.587 32.5837 171.34 32.0122C172.075 31.4977 172.869 31.2412 173.726 31.2412C174.031 31.2412 174.306 31.2622 174.551 31.2997V34.3492Z" fill="black"/>
<path d="M189.312 38.0529C189.312 38.6259 189.273 39.1089 189.191 39.5034H179.289C179.328 40.9254 179.806 42.0129 180.726 42.7629C181.56 43.4334 182.639 43.7694 183.965 43.7694C185.431 43.7694 186.768 43.5429 187.971 43.0884L188.488 45.3084C187.083 45.9024 185.423 46.1978 183.508 46.1978C181.204 46.1978 179.396 45.5409 178.08 44.2284C176.767 42.9159 176.109 41.1534 176.109 38.9424C176.109 36.7719 176.721 34.9644 177.945 33.5229C179.227 31.9839 180.96 31.2144 183.14 31.2144C185.281 31.2144 186.902 31.9839 188.002 33.5229C188.874 34.7454 189.312 36.2574 189.312 38.0529ZM186.165 37.2234C186.186 36.2754 185.971 35.4564 185.524 34.7649C184.952 33.8754 184.075 33.4314 182.893 33.4314C181.814 33.4314 180.937 33.8649 180.266 34.7349C179.717 35.4264 179.39 36.2559 179.289 37.2219H186.165V37.2234Z" fill="black"/>
</svg>
