<svg width="24" height="25" viewBox="0 0 24 25" fill="none" xmlns="http://www.w3.org/2000/svg">
<path fill-rule="evenodd" clip-rule="evenodd" d="M16.999 12.5054C16.999 12.5034 17 12.5024 17 12.5004C17 12.4674 16.984 12.4404 16.981 12.4084C16.973 12.3124 16.961 12.2164 16.924 12.1264C16.897 12.0584 16.851 12.0044 16.81 11.9444C16.779 11.9004 16.762 11.8494 16.724 11.8094L13.861 8.8094C13.479 8.4094 12.847 8.3954 12.447 8.7764C12.048 9.1574 12.033 9.7904 12.414 10.1904L13.664 11.5004H8C7.448 11.5004 7 11.9474 7 12.5004C7 13.0524 7.448 13.5004 8 13.5004H13.586L12.293 14.7934C11.902 15.1834 11.902 15.8164 12.293 16.2074C12.488 16.4024 12.744 16.5004 13 16.5004C13.256 16.5004 13.512 16.4024 13.707 16.2074L16.707 13.2074C16.798 13.1164 16.872 13.0064 16.922 12.8854C16.973 12.7644 16.998 12.6354 16.999 12.5054ZM12 20.5C7.589 20.5 4 16.911 4 12.5C4 8.089 7.589 4.5 12 4.5C16.411 4.5 20 8.089 20 12.5C20 16.911 16.411 20.5 12 20.5ZM12 2.5C6.486 2.5 2 6.986 2 12.5C2 18.014 6.486 22.5 12 22.5C17.514 22.5 22 18.014 22 12.5C22 6.986 17.514 2.5 12 2.5Z" fill="#006FEE"/>
</svg>
