<svg width="20" height="21" viewBox="0 0 20 21" fill="none" xmlns="http://www.w3.org/2000/svg">
<path fill-rule="evenodd" clip-rule="evenodd" d="M5.001 10.5054C5.001 10.5034 5 10.5024 5 10.5004C5 10.4674 5.016 10.4404 5.019 10.4084C5.027 10.3124 5.039 10.2164 5.076 10.1264C5.103 10.0584 5.149 10.0044 5.19 9.9444C5.221 9.9004 5.238 9.8494 5.276 9.8094L8.139 6.8094C8.521 6.4094 9.153 6.3954 9.553 6.7764C9.952 7.1574 9.967 7.7904 9.586 8.1904L8.336 9.5004H14C14.552 9.5004 15 9.9474 15 10.5004C15 11.0524 14.552 11.5004 14 11.5004H8.414L9.707 12.7934C10.098 13.1834 10.098 13.8164 9.707 14.2074C9.512 14.4024 9.256 14.5004 9 14.5004C8.744 14.5004 8.488 14.4024 8.293 14.2074L5.293 11.2074C5.202 11.1164 5.128 11.0064 5.078 10.8854C5.027 10.7644 5.002 10.6354 5.001 10.5054ZM10 18.5C14.411 18.5 18 14.911 18 10.5C18 6.089 14.411 2.5 10 2.5C5.589 2.5 2 6.089 2 10.5C2 14.911 5.589 18.5 10 18.5ZM10 0.5C15.514 0.5 20 4.986 20 10.5C20 16.014 15.514 20.5 10 20.5C4.486 20.5 0 16.014 0 10.5C0 4.986 4.486 0.5 10 0.5Z" fill="#006FEE"/>
</svg>
