<svg width="210" height="60" viewBox="0 0 210 60" fill="none" xmlns="http://www.w3.org/2000/svg">
<rect width="210" height="60" fill="white"/>
<path d="M15.718 11.0104C15.2632 11.4717 15 12.1898 15 13.1198V46.2923C15 47.2223 15.2632 47.9404 15.718 48.4017L15.8302 48.5029L35.0156 29.9217V29.4829L15.8302 10.9017L15.718 11.0104Z" fill="url(#paint0_linear_210_351)"/>
<path d="M41.4037 36.1187L35.0156 29.9218V29.483L41.4114 23.2862L41.5546 23.3668L49.1289 27.5424C51.2905 28.7274 51.2905 30.6774 49.1289 31.8699L41.5546 36.038L41.4037 36.1187V36.1187Z" fill="url(#paint1_linear_210_351)"/>
<path d="M41.5544 36.0379L35.0154 29.7022L15.7178 48.4016C16.4357 49.1329 17.6065 49.221 18.9379 48.4897L41.5544 36.0379" fill="url(#paint2_linear_210_351)"/>
<path d="M41.5544 23.3665L18.9379 10.9147C17.6065 10.1909 16.4357 10.279 15.7178 11.0103L35.0154 29.7021L41.5544 23.3665Z" fill="url(#paint3_linear_210_351)"/>
<path d="M72.9725 15.0681C72.9725 16.3206 72.5855 17.3237 71.823 18.0719C70.9464 18.9587 69.8046 19.405 68.4055 19.405C67.0683 19.405 65.9265 18.9512 64.9899 18.0569C64.0513 17.1494 63.583 16.0356 63.583 14.7025C63.583 13.3694 64.0513 12.2556 64.9899 11.3556C65.9265 10.4538 67.0683 10 68.4055 10C69.0712 10 69.7059 10.1331 70.3116 10.3806C70.9154 10.63 71.407 10.9675 71.763 11.3837L70.9541 12.175C70.3329 11.4644 69.4873 11.1138 68.4055 11.1138C67.4302 11.1138 66.5845 11.4437 65.8665 12.1094C65.1563 12.7769 64.8002 13.6412 64.8002 14.7025C64.8002 15.7637 65.1563 16.6356 65.8665 17.3031C66.5845 17.9612 67.4302 18.2987 68.4055 18.2987C69.4408 18.2987 70.3116 17.9612 70.9986 17.2956C71.4515 16.855 71.7089 16.2475 71.7766 15.4712H68.4055V14.3875H72.9029C72.957 14.6219 72.9725 14.8487 72.9725 15.0681V15.0681Z" fill="black" stroke="black" stroke-width="0.16" stroke-miterlimit="10"/>
<path d="M80.1075 11.3104H75.883V14.1604H79.6914V15.2442H75.883V18.0942H80.1075V19.1985H74.687V10.2061H80.1075V11.3104Z" fill="black" stroke="black" stroke-width="0.16" stroke-miterlimit="10"/>
<path d="M85.1426 19.1985H83.9467V11.3104H81.3555V10.2061H87.7358V11.3104H85.1426V19.1985V19.1985Z" fill="black" stroke="black" stroke-width="0.16" stroke-miterlimit="10"/>
<path d="M92.3535 19.1985V10.2061H93.5475V19.1985H92.3535Z" fill="black" stroke="black" stroke-width="0.16" stroke-miterlimit="10"/>
<path d="M98.8399 19.1985H97.6536V11.3104H95.0527V10.2061H101.441V11.3104H98.8399V19.1985Z" fill="black" stroke="black" stroke-width="0.16" stroke-miterlimit="10"/>
<path d="M113.52 18.0419C112.605 18.9512 111.471 19.405 110.118 19.405C108.758 19.405 107.624 18.9512 106.709 18.0419C105.795 17.1344 105.34 16.0206 105.34 14.7025C105.34 13.3844 105.795 12.2706 106.709 11.3631C107.624 10.4538 108.758 10 110.118 10C111.463 10 112.597 10.4537 113.513 11.3706C114.434 12.2856 114.889 13.3919 114.889 14.7025C114.889 16.0206 114.434 17.1344 113.52 18.0419ZM107.593 17.2881C108.282 17.9612 109.12 18.2987 110.118 18.2987C111.109 18.2987 111.955 17.9612 112.636 17.2881C113.323 16.615 113.671 15.7506 113.671 14.7025C113.671 13.6544 113.323 12.79 112.636 12.1169C111.955 11.4438 111.109 11.1062 110.118 11.1062C109.12 11.1062 108.282 11.4438 107.593 12.1169C106.906 12.79 106.558 13.6544 106.558 14.7025C106.558 15.7506 106.906 16.615 107.593 17.2881V17.2881Z" fill="black" stroke="black" stroke-width="0.16" stroke-miterlimit="10"/>
<path d="M116.566 19.1985V10.2061H118.018L122.531 17.1998H122.583L122.531 15.4711V10.2061H123.725V19.1985H122.478L117.753 11.8598H117.7L117.753 13.5961V19.1985H116.566V19.1985Z" fill="black" stroke="black" stroke-width="0.16" stroke-miterlimit="10"/>
<path d="M105.046 32.3309C101.41 32.3309 98.4395 35.0121 98.4395 38.7115C98.4395 42.3809 101.41 45.0902 105.046 45.0902C108.69 45.0902 111.661 42.3809 111.661 38.7115C111.661 35.0121 108.69 32.3309 105.046 32.3309ZM105.046 42.5777C103.051 42.5777 101.334 40.9821 101.334 38.7115C101.334 36.4109 103.051 34.8434 105.046 34.8434C107.041 34.8434 108.766 36.4109 108.766 38.7115C108.766 40.9821 107.041 42.5777 105.046 42.5777V42.5777ZM90.631 32.3309C86.987 32.3309 84.0243 35.0121 84.0243 38.7115C84.0243 42.3809 86.987 45.0902 90.631 45.0902C94.273 45.0902 97.2377 42.3809 97.2377 38.7115C97.2377 35.0121 94.273 32.3309 90.631 32.3309ZM90.631 42.5777C88.6339 42.5777 86.9116 40.9821 86.9116 38.7115C86.9116 36.4109 88.6339 34.8434 90.631 34.8434C92.6262 34.8434 94.3427 36.4109 94.3427 38.7115C94.3427 40.9821 92.6262 42.5777 90.631 42.5777ZM73.4775 34.2865V36.9977H80.1597C79.9642 38.5127 79.4418 39.6265 78.6406 40.4027C77.6653 41.3402 76.1461 42.3809 73.4775 42.3809C69.3652 42.3809 66.1451 39.1652 66.1451 35.1809C66.1451 31.1965 69.3652 27.9809 73.4775 27.9809C75.701 27.9809 77.3189 28.8227 78.5129 29.914L80.4848 28.0034C78.8148 26.4584 76.5932 25.2715 73.4775 25.2715C67.8384 25.2715 63.0991 29.7171 63.0991 35.1809C63.0991 40.6446 67.8384 45.0902 73.4775 45.0902C76.5254 45.0902 78.8148 44.1227 80.6145 42.3077C82.4587 40.5209 83.0335 38.0084 83.0335 35.9796C83.0335 35.3496 82.9793 34.7702 82.8825 34.2865H73.4775ZM143.62 36.3884C143.076 34.9615 141.399 32.3309 137.981 32.3309C134.595 32.3309 131.775 34.9165 131.775 38.7115C131.775 42.2852 134.565 45.0902 138.306 45.0902C141.331 45.0902 143.076 43.3034 143.794 42.2627L141.55 40.8134C140.801 41.8746 139.781 42.5777 138.306 42.5777C136.841 42.5777 135.79 41.9271 135.117 40.6446L143.924 37.114L143.62 36.3884V36.3884ZM134.641 38.5127C134.565 36.0527 136.613 34.7927 138.08 34.7927C139.229 34.7927 140.205 35.3496 140.53 36.1465L134.641 38.5127V38.5127ZM127.483 44.7021H130.378V25.9521H127.483V44.7021ZM122.742 33.7521H122.645C121.995 33.0059 120.754 32.3309 119.183 32.3309C115.885 32.3309 112.87 35.1359 112.87 38.7321C112.87 42.3077 115.885 45.0902 119.183 45.0902C120.754 45.0902 121.995 44.4096 122.645 43.6409H122.742V44.5559C122.742 46.9952 121.397 48.3059 119.227 48.3059C117.458 48.3059 116.361 47.0684 115.908 46.0277L113.391 47.0459C114.116 48.7371 116.038 50.8184 119.227 50.8184C122.622 50.8184 125.486 48.8834 125.486 44.1752V32.719H122.742V33.7521V33.7521ZM119.43 42.5777C117.435 42.5777 115.765 40.9596 115.765 38.7321C115.765 36.484 117.435 34.8434 119.43 34.8434C121.397 34.8434 122.947 36.484 122.947 38.7321C122.947 40.9596 121.397 42.5777 119.43 42.5777V42.5777ZM157.174 25.9521H150.25V44.7021H153.137V37.5977H157.174C160.381 37.5977 163.526 35.3496 163.526 31.774C163.526 28.2002 160.373 25.9521 157.174 25.9521V25.9521ZM157.25 34.9896H153.137V28.5602H157.25C159.406 28.5602 160.636 30.2946 160.636 31.774C160.636 33.2252 159.406 34.9896 157.25 34.9896ZM175.098 32.2952C173.012 32.2952 170.842 33.1877 169.95 35.1659L172.513 36.2065C173.064 35.1659 174.078 34.8284 175.15 34.8284C176.648 34.8284 178.167 35.7002 178.19 37.2396V37.4365C177.668 37.144 176.549 36.7109 175.173 36.7109C172.414 36.7109 169.602 38.1827 169.602 40.9296C169.602 43.4421 171.862 45.0602 174.403 45.0602C176.346 45.0602 177.418 44.2109 178.092 43.2227H178.19V44.6721H180.979V37.4796C180.979 34.1552 178.417 32.2952 175.098 32.2952ZM174.75 42.5702C173.805 42.5702 172.489 42.1165 172.489 40.9821C172.489 39.5309 174.13 38.974 175.551 38.974C176.822 38.974 177.418 39.2459 178.19 39.604C177.964 41.3402 176.422 42.5702 174.75 42.5702V42.5702ZM191.139 32.7059L187.82 40.834H187.721L184.29 32.7059H181.176L186.332 44.0646L183.39 50.3852H186.407L194.351 32.7059H191.139V32.7059ZM165.112 44.7021H168.007V25.9521H165.112V44.7021Z" fill="black"/>
<defs>
<linearGradient id="paint0_linear_210_351" x1="33.3122" y1="46.6378" x2="8.15114" y2="20.6691" gradientUnits="userSpaceOnUse">
<stop stop-color="#00A0FF"/>
<stop offset="0.0066" stop-color="#00A1FF"/>
<stop offset="0.2601" stop-color="#00BEFF"/>
<stop offset="0.5122" stop-color="#00D2FF"/>
<stop offset="0.7604" stop-color="#00DFFF"/>
<stop offset="1" stop-color="#00E3FF"/>
</linearGradient>
<linearGradient id="paint1_linear_210_351" x1="51.9437" y1="29.7003" x2="14.4833" y2="29.7003" gradientUnits="userSpaceOnUse">
<stop stop-color="#FFE000"/>
<stop offset="0.4087" stop-color="#FFBD00"/>
<stop offset="0.7754" stop-color="#FFA500"/>
<stop offset="1" stop-color="#FF9C00"/>
</linearGradient>
<linearGradient id="paint2_linear_210_351" x1="37.9987" y1="26.2581" x2="3.8783" y2="-8.95755" gradientUnits="userSpaceOnUse">
<stop stop-color="#FF3A44"/>
<stop offset="1" stop-color="#C31162"/>
</linearGradient>
<linearGradient id="paint3_linear_210_351" x1="10.8602" y1="59.4379" x2="26.0964" y2="43.7126" gradientUnits="userSpaceOnUse">
<stop stop-color="#32A071"/>
<stop offset="0.0685" stop-color="#2DA771"/>
<stop offset="0.4762" stop-color="#15CF74"/>
<stop offset="0.8009" stop-color="#06E775"/>
<stop offset="1" stop-color="#00F076"/>
</linearGradient>
</defs>
</svg>
